<svg width="25" height="23" viewBox="0 0 25 23" fill="none" xmlns="http://www.w3.org/2000/svg">
<path d="M23.1665 12.3543C22.9353 13.3155 22.5607 14.2569 22.0346 15.1387H23.8107C24.2109 15.2694 24.5 15.6457 24.5 16.0895C24.5 16.6418 24.0523 17.0895 23.5 17.0895H1.5C0.947715 17.0895 0.5 16.6418 0.5 16.0895C0.5 15.6457 0.789106 15.2694 1.18926 15.1387H4.88474C2.80313 11.6673 2.96893 7.11842 5.64178 3.76324C6.57641 2.59002 7.73336 1.68339 9.0002 1.05609C9.34343 0.882034 9.75624 1.13419 9.72893 1.52155C9.51677 4.67671 10.804 7.87563 13.4633 9.99413C16.1226 12.1126 19.5283 12.6522 22.5562 11.7402C22.9214 11.6348 23.2595 11.9808 23.1665 12.3543Z" fill="#517AA4"/>
<path d="M7.5 21.2395C7.03056 21.2395 6.65 21.62 6.65 22.0895C6.65 22.5589 7.03056 22.9395 7.5 22.9395H17.5C17.9694 22.9395 18.35 22.5589 18.35 22.0895C18.35 21.62 17.9694 21.2395 17.5 21.2395H7.5Z" fill="#517AA4"/>
<path d="M4.65 19.0895C4.65 18.62 5.03056 18.2395 5.5 18.2395H19.5C19.9694 18.2395 20.35 18.62 20.35 19.0895C20.35 19.5589 19.9694 19.9395 19.5 19.9395H5.5C5.03056 19.9395 4.65 19.5589 4.65 19.0895Z" fill="#517AA4"/>
</svg>
