<svg width="21" height="20" viewBox="0 0 21 20" fill="none" xmlns="http://www.w3.org/2000/svg">
<path fill-rule="evenodd" clip-rule="evenodd" d="M10.5045 0L10.5136 0C11.0139 0 11.4141 0.400182 11.4141 0.900409V1.78263C11.4141 2.28286 11.0139 2.68304 10.5045 2.67394H10.4955C9.99522 2.67394 9.59504 2.27376 9.59504 1.77353V0.900409C9.59504 0.400182 9.99522 0 10.5045 0ZM5.09301 3.26414L4.73831 2.90943C4.3836 2.55472 3.81061 2.56382 3.465 2.90943L3.45591 2.91852C3.1012 3.27323 3.1012 3.84622 3.45591 4.19183L3.81061 4.54654C4.16532 4.90124 4.72921 4.90124 5.08392 4.54654L5.09301 4.53744C5.44772 4.19183 5.44772 3.60975 5.09301 3.26414ZM2.3281 9.04886H1.40041C0.900182 9.04886 0.5 9.44904 0.5 9.94927V9.95836C0.5 10.4586 0.900182 10.8588 1.40041 10.8588H2.31901C2.82833 10.8679 3.22851 10.4677 3.22851 9.96746V9.95836C3.22851 9.44904 2.82833 9.04886 2.3281 9.04886ZM17.5534 2.92108C17.1987 2.56638 16.6257 2.56638 16.271 2.91199L15.9163 3.26669C15.5616 3.6214 15.5616 4.19439 15.9163 4.54L15.9254 4.5491C16.2801 4.9038 16.8531 4.9038 17.1987 4.5491L17.5534 4.19439C17.9081 3.83968 17.9081 3.27579 17.5534 2.92108ZM16.2619 17.006L15.9072 16.6513C15.5525 16.2966 15.5525 15.7327 15.9163 15.3689C16.2619 15.0233 16.8349 15.0142 17.1896 15.3689L17.5443 15.7236C17.899 16.0783 17.899 16.6513 17.5443 17.006C17.1896 17.3607 16.6166 17.3607 16.2619 17.006ZM17.7806 9.94927V9.95836C17.7806 10.4586 18.1808 10.8588 18.681 10.8588H19.5996C20.0998 10.8588 20.5 10.4586 20.5 9.95836V9.94927C20.5 9.44904 20.0998 9.04886 19.5996 9.04886H18.681C18.1808 9.04886 17.7806 9.44904 17.7806 9.94927ZM5.04752 9.95836C5.04752 6.9479 7.49409 4.50134 10.5045 4.50134C13.515 4.50134 15.9616 6.9479 15.9616 9.95836C15.9616 12.9688 13.515 15.4154 10.5045 15.4154C7.49409 15.4154 5.04752 12.9688 5.04752 9.95836ZM10.4955 19.919H10.5045C11.0048 19.919 11.405 19.5188 11.405 19.0186V18.1455C11.405 17.6452 11.0048 17.2451 10.5045 17.2451H10.4955C9.99522 17.2451 9.59504 17.6452 9.59504 18.1455V19.0186C9.59504 19.5188 9.99522 19.919 10.4955 19.919ZM4.73812 16.9988C4.38342 17.3535 3.81043 17.3535 3.45572 16.9988C3.10102 16.6441 3.10102 16.0802 3.44663 15.7164L3.80133 15.3617C3.97126 15.1914 4.20195 15.0956 4.44253 15.0956C4.68311 15.0956 4.91381 15.1914 5.08374 15.3617L5.09283 15.3708C5.43844 15.7164 5.44754 16.2894 5.09283 16.6441L4.73812 16.9988Z" fill="#517AA4"/>
</svg>
