<svg width="64" height="64" viewBox="0 0 64 64" fill="none" xmlns="http://www.w3.org/2000/svg">
<path fill-rule="evenodd" clip-rule="evenodd" d="M0.939769 32.7246C0.127722 22.7054 -2.13899 11.1098 5.65593 4.43069C13.6894 -2.4528 25.765 0.163298 36.2458 2.4727C46.7182 4.78023 58.7793 7.47766 62.8852 17.0409C66.8642 26.3086 59.296 35.6301 54.2474 44.4011C49.7362 52.2385 45.2839 60.8816 36.3038 63.2212C26.9875 65.6484 17.024 62.1733 9.83331 55.9724C3.11299 50.177 1.64186 41.3872 0.939769 32.7246Z" fill="#DDEDF9"/>
<g clip-path="url(#clip0_10949_82551)">
<path d="M6.5228 25.4923C6.5664 25.5687 6.61311 25.6451 6.65983 25.7216C6.80559 25.9909 7.00589 26.2281 7.24841 26.4187C7.73734 26.752 8.43803 26.7428 8.99858 26.648C9.51296 26.5415 10.0188 26.3984 10.5121 26.22C11.7889 25.8072 13.1187 25.4984 14.2771 24.8288C14.5605 24.6901 14.8005 24.4788 14.9716 24.2172C15.1802 23.8289 15.0868 23.4131 15.0214 22.9942C14.956 22.5753 14.9093 22.1166 14.8626 21.6794C14.7598 20.7407 14.6913 19.802 14.6695 18.8572C14.6562 18.7046 14.6731 18.551 14.7193 18.4047C14.8097 18.1662 15.1366 18.0225 15.3422 17.888C16.2937 17.2723 17.307 16.7539 18.3661 16.3408C18.4423 16.3031 18.5267 16.2843 18.6121 16.2858C18.6999 16.3037 18.7815 16.3437 18.8488 16.402C19.0699 16.5671 19.2629 16.8239 19.4934 16.9646C19.7238 17.1052 19.8671 16.989 20.1162 16.8851C20.449 16.7416 20.7627 16.5588 21.0505 16.3408C21.4802 16.0106 21.3121 15.7048 21.1377 15.237C20.8263 14.3962 20.3467 13.4942 19.319 13.5003C18.5405 13.5003 17.7214 13.8488 16.9865 14.0873C16.1706 14.3472 15.3671 14.6408 14.5699 14.9526C11.9178 15.9831 9.33241 17.1717 6.82799 18.5117C6.32792 18.7442 5.87601 19.0655 5.49512 19.4596C4.90031 20.1659 4.92211 20.9334 5.1401 21.7834C5.43091 23.0746 5.89591 24.3219 6.5228 25.4923Z" fill="#99C632"/>
<path d="M8.49719 26.8254C8.53895 26.7854 8.58372 26.7486 8.6311 26.7153C9.02493 26.4574 9.46427 26.2739 9.92661 26.1741C11.0511 25.8496 12.1545 25.4585 13.2308 25.003C14.2709 24.5597 14.7723 24.471 15.8404 24.8165C16.8004 25.1218 17.737 25.4937 18.6432 25.9295C20.4547 26.795 22.107 27.9502 23.5325 29.3479C26.1204 31.9071 27.8332 35.1574 29.5429 38.2945C31.3522 41.6334 33.2083 44.9173 35.0301 48.2532C35.5155 49.0656 35.9032 49.9305 36.1854 50.8307C36.462 51.7371 36.4102 52.7095 36.0391 53.5826C35.7574 54.1115 35.3832 54.5875 34.9335 54.9891C33.0819 56.7233 30.984 58.1848 28.7052 59.3279C24.9058 61.2756 20.7484 62.0124 16.5193 62.3855C15.9575 62.4603 15.3873 62.451 14.8283 62.358C13.9688 62.1714 13.4737 61.5355 13.0065 60.8536C12.6638 60.3631 12.3518 59.8526 12.0723 59.3248C11.8214 58.8139 11.601 58.2892 11.4121 57.7532C9.91415 53.7538 8.41623 49.7392 7.36363 45.5991C6.32349 41.5814 5.56052 37.209 6.24564 33.0568C6.32038 32.5961 6.41692 32.1375 6.53526 31.6809C6.7565 30.8565 7.03324 30.0475 7.36363 29.2592C7.68751 28.4459 7.80273 27.443 8.49719 26.8254Z" fill="#517AA4"/>
<path d="M48.7419 12.904C49.8692 13.1028 51.2519 13.858 52.0959 14.1271C53.7464 14.6347 55.4499 15.1392 56.7672 16.298C58.8381 18.1326 59.0405 20.9089 58.9969 23.4712C58.9128 28.2227 58.1063 32.9315 57.2997 37.6157C57.1689 38.374 57.0287 39.1445 56.6052 39.8019C55.3222 41.7588 52.4384 41.6182 50.4018 41.3124C44.8896 40.4838 39.3526 38.5881 34.753 35.4571C34.0429 34.9648 33.3391 34.4113 32.9872 33.6317C32.4734 32.4422 32.9872 31.0847 33.5416 29.9166C35.0986 26.6297 37.0606 23.5384 39.0941 20.5114C41.3332 17.1755 43.7654 14.1424 47.7609 12.9193C48.0817 12.8355 48.4186 12.8302 48.7419 12.904Z" fill="#99C632"/>
<path d="M52.454 4.44631C52.2224 4.41519 51.9867 4.43291 51.7627 4.49829C51.2644 4.67257 50.8284 6.04238 50.6104 6.46434C50.1557 7.38162 49.7177 8.304 49.2962 9.23148C48.8914 10.1212 47.9509 11.7785 48.5239 12.7447C48.6691 12.969 48.8586 13.1624 49.0813 13.3134C51.113 14.7571 53.5408 15.5658 56.0478 15.6341C56.118 15.6537 56.1916 15.6587 56.2639 15.649C56.3361 15.6393 56.4056 15.615 56.4679 15.5777C56.5302 15.5404 56.584 15.4908 56.6258 15.4321C56.6677 15.3734 56.6967 15.3069 56.7111 15.2366C57.6376 13.0123 58.286 10.6858 58.6419 8.30808C58.726 7.75159 58.7602 7.22568 58.3585 6.77927C58.0493 6.46644 57.6798 6.21701 57.2717 6.04544C56.3547 5.60865 55.4001 5.25257 54.4191 4.98139C53.7802 4.75012 53.1229 4.57115 52.454 4.44631Z" fill="#F1B441"/>
<path d="M44.8617 39.5596C45.4845 39.0459 45.8738 38.254 46.2973 37.5415C47.0363 36.3682 47.9436 35.3055 48.9911 34.3861C50.0281 33.4199 51.3049 32.6738 52.1925 31.5608C52.453 31.2609 52.6347 30.9029 52.7219 30.5182C52.765 30.3312 52.7362 30.1352 52.6409 29.9678C52.54 29.8514 52.4068 29.7664 52.2575 29.7229C52.1082 29.6795 51.9493 29.6796 51.8001 29.7232C51.3459 29.837 50.9296 30.0646 50.5918 30.3836C49.3804 31.3988 48.5427 32.7472 47.7236 34.0528C47.3001 34.7377 46.8735 35.4257 46.397 36.0739C46.2818 36.2268 46.1697 36.3796 46.0451 36.5295C45.88 36.7282 45.852 36.8352 45.7337 36.6212C45.6777 36.4126 45.6392 36.1999 45.6184 35.9852C45.553 35.7589 45.469 35.5357 45.3973 35.3125C45.2168 34.7456 44.9524 34.2079 44.6126 33.7164C43.9177 32.7139 43.0616 31.829 42.0776 31.0961C41.5416 30.6877 40.9519 30.3524 40.3243 30.0993C39.9693 29.9586 37.9451 29.3869 37.7613 29.9036C37.7022 30.0718 37.8517 30.2369 37.9887 30.3592C38.8482 31.1175 39.7077 31.888 40.6139 32.5851C41.5887 33.3526 42.6257 34.0681 43.4447 35.0037C43.8036 35.4546 44.1313 35.9286 44.4257 36.4224C44.7371 36.8964 45.089 37.3886 45.1264 37.9757C45.1731 38.6423 44.815 39.1988 44.5285 39.7583C44.6514 39.7135 44.7646 39.6461 44.8617 39.5596Z" fill="#F2FFDD"/>
<path d="M45.7958 37.3646L47.7578 32.185C48.1159 30.6072 48.5394 29.0631 48.6048 27.4426C48.664 25.9688 48.692 24.4981 48.7076 23.0243C48.7076 22.3119 48.7076 21.5903 48.7076 20.884C48.7076 19.9667 48.8197 19.077 48.172 18.3278C48.0618 18.1728 47.9083 18.0524 47.73 17.9812C47.5517 17.91 47.3561 17.8911 47.1671 17.9267C46.978 17.9622 46.8035 18.0508 46.6646 18.1817C46.5257 18.3126 46.4284 18.4802 46.3844 18.6642C46.2619 19.0725 46.2447 19.5044 46.3346 19.9209C46.6086 21.734 47.3592 23.4279 47.6052 25.2564C48.0163 28.6665 47.5572 32.1234 46.2692 35.316C46.2225 35.4352 46.1727 35.5575 46.1228 35.6768C45.8955 36.2149 45.6401 36.802 45.7958 37.3646Z" fill="#F2FFDD"/>
<path d="M48.7201 27.0049L51.4824 24.2408L50.9561 23.8953L48.3184 26.4851L48.7201 27.0049Z" fill="#F2FFDD"/>
<path d="M44.9114 27.6261C44.9992 27.8211 45.13 27.9944 45.2945 28.1336C45.7591 28.5827 46.1396 29.1084 46.4187 29.6869C46.6733 30.2997 46.8156 30.9518 46.8391 31.6132C46.8733 32.0076 46.9138 32.4082 46.9855 32.7965C47.0152 32.9458 47.0339 33.0971 47.0415 33.249C47.134 33.0803 47.2001 32.8989 47.2377 32.7109L47.3623 32.3531C47.3841 32.2828 47.49 32.0933 47.4744 32.026C47.2533 31.1576 47.0602 30.2801 46.7768 29.4301C46.6696 29.0844 46.5267 28.7504 46.3502 28.4333C46.1606 28.1541 45.9526 27.8875 45.7273 27.6352C45.5099 27.4041 45.2712 27.1933 45.0142 27.0054C44.914 27.1472 44.8607 27.3159 44.8616 27.4885C44.8712 27.5365 44.888 27.5829 44.9114 27.6261Z" fill="#F2FFDD"/>
<path d="M43.7592 28.149C44.9167 28.149 45.855 27.2277 45.855 26.0912C45.855 24.9547 44.9167 24.0334 43.7592 24.0334C42.6017 24.0334 41.6633 24.9547 41.6633 26.0912C41.6633 27.2277 42.6017 28.149 43.7592 28.149Z" fill="#33485F"/>
<path d="M52.7467 24.7213C53.9042 24.7213 54.8426 23.8 54.8426 22.6635C54.8426 21.527 53.9042 20.6057 52.7467 20.6057C51.5892 20.6057 50.6509 21.527 50.6509 22.6635C50.6509 23.8 51.5892 24.7213 52.7467 24.7213Z" fill="#33485F"/>
<path d="M17.1453 40.4162L16.1114 39.0341C15.5166 38.2422 14.9187 37.5817 14.5948 36.6339C14.5292 36.4046 14.4073 36.1946 14.2398 36.0224C14.1701 35.951 14.0838 35.8974 13.9883 35.8659C13.8929 35.8345 13.7911 35.8263 13.6917 35.842C13.4706 35.9306 13.5391 36.0866 13.5391 36.3006C13.5561 36.4011 13.5967 36.4963 13.6574 36.5788C13.8365 36.7263 14.0236 36.8641 14.218 36.9916L14.6384 37.2362L17.0706 40.459L17.1453 40.4162Z" fill="white"/>
<path d="M21.0318 39.0586L21.3837 37.2974C21.5862 36.2853 21.6952 35.368 22.1965 34.4508C22.3347 34.2404 22.4181 34 22.4394 33.7506C22.4394 33.5793 22.3678 33.2889 22.1934 33.2063C21.9661 33.0993 21.882 33.2644 21.7263 33.4142C21.658 33.498 21.6111 33.5965 21.5893 33.7016C21.5969 33.939 21.6177 34.1758 21.6516 34.411L21.7574 34.9033L20.9478 39.028L21.0318 39.0586Z" fill="white"/>
<path d="M17.8958 40.5267L15.7314 34.7753C15.5072 34.1638 15.8622 33.5003 15.5632 32.8674C15.4994 32.7299 15.4055 32.6079 15.2881 32.5101C15.1708 32.4123 15.0329 32.3412 14.8843 32.3017C14.3861 32.1764 14.221 32.7053 14.3207 33.1089C14.4888 33.8183 15.2954 34.0507 15.5414 34.6989L17.7681 40.5481L17.8958 40.5267Z" fill="white"/>
<path d="M18.4534 39.41L16.9555 33.4721C16.7998 32.8605 17.2295 32.2184 17.0022 31.558C16.9558 31.4142 16.8772 31.2823 16.7721 31.1723C16.667 31.0622 16.5381 30.9767 16.3949 30.922C15.8998 30.7416 15.688 31.2492 15.741 31.6589C15.8282 32.3835 16.6036 32.7046 16.7749 33.3742L18.332 39.4283L18.4534 39.41Z" fill="white"/>
<path d="M19.1228 39.0586L18.5778 32.9648C18.5218 32.3288 19.0449 31.7693 18.9266 31.0782C18.9032 30.9292 18.846 30.7873 18.7592 30.6629C18.6724 30.5385 18.5583 30.4349 18.4252 30.3597C17.9799 30.1059 17.6778 30.5768 17.6654 30.9896C17.6373 31.7173 18.3505 32.1515 18.4159 32.8241L18.9889 39.0433L19.1228 39.0586Z" fill="white"/>
<path d="M20.1723 40.285L20.1878 34.1697C20.1878 33.5338 20.764 33.0201 20.7079 32.3352C20.6977 32.1847 20.6535 32.0384 20.5787 31.9067C20.5038 31.775 20.4001 31.6613 20.275 31.5738C19.8515 31.2681 19.509 31.7236 19.456 32.1364C19.3657 32.858 20.0352 33.3595 20.0352 34.0444V40.288L20.1723 40.285Z" fill="white"/>
<path d="M30.938 58.0561C30.8788 58.0958 29.6487 57.0012 29.5553 56.9278L27.2197 55.0199C27.0963 54.9261 26.9797 54.8239 26.8709 54.7141C26.7414 54.5738 26.6237 54.4235 26.519 54.2646L25.5847 52.9437C25.3667 52.638 24.9619 52.1212 25.0709 51.7207C25.1456 51.4149 25.3823 51.1306 25.4726 50.8034C25.5396 50.4429 25.5791 50.0781 25.5909 49.7118C25.4938 48.7404 25.3125 47.7789 25.0491 46.8377C24.666 45.7002 24.0588 44.6423 23.7224 43.4743C23.0996 41.3095 23.1245 39.0163 23.0435 36.7842C23.0442 36.7389 23.0347 36.694 23.0155 36.6527C22.9903 36.6206 22.9568 36.5957 22.9185 36.5806C22.8801 36.5656 22.8383 36.5609 22.7975 36.5671C22.6897 36.5829 22.5868 36.6225 22.4968 36.6829C22.4067 36.7432 22.3317 36.8228 22.2775 36.9157C22.1701 37.1068 22.0934 37.3131 22.0501 37.5272C21.9037 38.095 21.7164 38.6519 21.4896 39.1936C21.0669 38.6483 20.678 38.0786 20.3249 37.4875C20.2875 37.4324 20.2408 37.3713 20.1754 37.3682C20.11 37.3652 20.0415 37.4447 20.0103 37.515C19.7923 38.0195 19.9138 38.5882 19.9138 39.1355C19.9138 39.3954 19.7487 39.4719 19.5525 39.2884C18.8207 38.6127 18.3785 37.6006 17.466 37.1909C17.3602 37.142 17.2169 37.1114 17.1546 37.1909C17.133 37.2235 17.1185 37.2602 17.1121 37.2986C17.1056 37.3371 17.1074 37.3764 17.1172 37.4141C17.1515 37.6556 18.0515 40.2424 17.4847 40.1874C17.4119 40.1755 17.3456 40.1387 17.2979 40.0834C16.53 39.4183 15.6473 38.8933 14.6913 38.5332C14.5294 38.472 14.2958 38.4415 14.2242 38.5974C14.1089 38.842 14.7473 39.5514 14.8781 39.7409L15.8124 41.1077C16.4352 42.025 17.0581 42.9423 17.6498 43.8596C18.83 45.6452 20.001 47.437 21.2404 49.1798L21.7698 49.9198C22.047 50.3111 22.3397 50.6842 22.6512 51.0572C23.4255 51.9765 24.1999 52.8989 24.9743 53.8243C25.6283 54.604 26.22 55.4143 27.0359 56.0533C27.5716 56.4784 28.1601 56.8361 28.73 57.2183C29.2999 57.6005 29.8885 58.0102 30.4646 58.4108L30.938 58.0561Z" fill="#A7C0DC"/>
<path d="M10.5061 43.0306C10.4514 43.1235 10.4226 43.229 10.4226 43.3363C10.4226 43.4437 10.4514 43.5491 10.5061 43.6421C11.2877 45.6479 13.4085 47.1522 14.9656 48.5649C19.014 52.234 23.268 55.5179 28.2507 57.8937C28.7325 58.1565 29.261 58.3267 29.8078 58.3951C30.6984 58.4563 31.4583 58.0588 30.742 57.2332C27.5282 53.5192 24.1379 49.9612 20.5711 46.5591C19.5694 45.6094 18.4111 44.833 17.1455 44.2628C16.3417 43.8679 15.5089 43.5327 14.6541 43.2599C14.0313 43.0642 11.051 42.2815 10.5061 43.0306Z" fill="#DDEDF9"/>
</g>
<defs>
<clipPath id="clip0_10949_82551">
<rect width="54" height="58" fill="white" transform="translate(5 4.44629)"/>
</clipPath>
</defs>
</svg>
