<svg width="30" height="30" viewBox="0 0 30 30" fill="none" xmlns="http://www.w3.org/2000/svg">
<g clip-path="url(#clip0_287_37030)">
<circle cx="15" cy="15" r="15" fill="#DDEDF9"/>
<mask id="path-2-inside-1_287_37030" fill="white">
<path d="M18.6623 18.4163C18.3362 19.138 17.8021 19.7473 17.1276 20.1673C16.4531 20.5872 15.6685 20.7989 14.8729 20.7756C14.0774 20.7523 13.3066 20.495 12.6582 20.0363C12.0097 19.5776 11.5127 18.938 11.2299 18.1985L12.5514 17.6993C12.7348 18.179 13.0572 18.5938 13.4779 18.8914C13.8985 19.189 14.3985 19.3559 14.9146 19.371C15.4306 19.3861 15.9396 19.2488 16.3772 18.9764C16.8147 18.7039 17.1612 18.3087 17.3727 17.8405L18.6623 18.4163Z"/>
</mask>
<path d="M18.6623 18.4163C18.3362 19.138 17.8021 19.7473 17.1276 20.1673C16.4531 20.5872 15.6685 20.7989 14.8729 20.7756C14.0774 20.7523 13.3066 20.495 12.6582 20.0363C12.0097 19.5776 11.5127 18.938 11.2299 18.1985L12.5514 17.6993C12.7348 18.179 13.0572 18.5938 13.4779 18.8914C13.8985 19.189 14.3985 19.3559 14.9146 19.371C15.4306 19.3861 15.9396 19.2488 16.3772 18.9764C16.8147 18.7039 17.1612 18.3087 17.3727 17.8405L18.6623 18.4163Z" stroke="#1F4C7C" stroke-width="2" mask="url(#path-2-inside-1_287_37030)"/>
<line x1="18.423" y1="17.7529" x2="20" y2="17.7529" stroke="#1F4C7C" stroke-width="2" stroke-linecap="round"/>
<line x1="11.577" y1="17.791" x2="10" y2="17.791" stroke="#1F4C7C" stroke-width="2" stroke-linecap="round"/>
<path d="M16.674 8.13639C16.674 9.05121 15.9263 9.80306 14.9913 9.80306C14.0562 9.80306 13.3085 9.05121 13.3085 8.13639C13.3085 7.22158 14.0562 6.46973 14.9913 6.46973C15.9263 6.46973 16.674 7.22158 16.674 8.13639Z" stroke="#1F4C7C" stroke-width="2"/>
<ellipse cx="14.9912" cy="13.4524" rx="0.894249" ry="0.888888" fill="#1F4C7C"/>
<ellipse cx="16.3327" cy="15.3518" rx="0.894248" ry="0.888888" fill="#1F4C7C"/>
<ellipse cx="13.6499" cy="15.3518" rx="0.894249" ry="0.888888" fill="#1F4C7C"/>
<rect x="9.62579" y="3" width="10.731" height="24" rx="5.36549" stroke="#1F4C7C" stroke-width="2"/>
<path d="M24.0233 22.043C24.0233 21.4471 24.1 20.9722 24.2535 20.6183C24.407 20.2643 24.7093 19.8768 25.1605 19.4556C25.6163 19.03 25.9047 18.7276 26.0256 18.5484C26.2116 18.2751 26.3047 17.9794 26.3047 17.6613C26.3047 17.2401 26.1953 16.9198 25.9767 16.7003C25.7628 16.4763 25.4465 16.3642 25.0279 16.3642C24.6279 16.3642 24.3047 16.474 24.0581 16.6935C23.8163 16.9086 23.6953 17.2021 23.6953 17.5739H22C22.0093 16.7809 22.2884 16.1537 22.8372 15.6922C23.3907 15.2307 24.1209 15 25.0279 15C25.9628 15 26.6907 15.2285 27.2116 15.6855C27.7372 16.1425 28 16.7809 28 17.6008C28 18.3311 27.6465 19.0502 26.9395 19.7581L26.0814 20.5712C25.7744 20.9073 25.6163 21.3978 25.607 22.043H24.0233ZM23.9047 24.1331C23.9047 23.8687 23.9907 23.6559 24.1628 23.4946C24.3349 23.3289 24.5674 23.246 24.8605 23.246C25.1581 23.246 25.393 23.3311 25.5651 23.5013C25.7372 23.6671 25.8233 23.8777 25.8233 24.1331C25.8233 24.3795 25.7395 24.5856 25.5721 24.7513C25.4047 24.9171 25.1674 25 24.8605 25C24.5535 25 24.3163 24.9171 24.1488 24.7513C23.986 24.5856 23.9047 24.3795 23.9047 24.1331Z" fill="#1F4C7C"/>
</g>
<defs>
<clipPath id="clip0_287_37030">
<rect width="30" height="30" fill="white"/>
</clipPath>
</defs>
</svg>
