<svg width="36" height="36" viewBox="0 0 36 36" fill="none" xmlns="http://www.w3.org/2000/svg">
<path fill-rule="evenodd" clip-rule="evenodd" d="M0.5 18.2437C0.5 8.58365 8.34 0.743652 18 0.743652C27.66 0.743652 35.5 8.58365 35.5 18.2437C35.5 27.9037 27.66 35.7437 18 35.7437C8.34 35.7437 0.5 27.9037 0.5 18.2437ZM6.975 19.4687L13.2575 25.7512C13.94 26.4337 15.06 26.4337 15.725 25.7512L29.0075 12.4687C29.69 11.7862 29.69 10.6837 29.0075 10.0012C28.325 9.31865 27.2225 9.31865 26.54 10.0012L14.5 22.0412L9.4425 17.0012C8.76 16.3187 7.6575 16.3187 6.975 17.0012C6.64731 17.3281 6.46315 17.772 6.46315 18.2349C6.46315 18.6978 6.64731 19.1417 6.975 19.4687Z" fill="#99C632"/>
</svg>
