<svg width="64" height="65" viewBox="0 0 64 65" fill="none" xmlns="http://www.w3.org/2000/svg">
<path fill-rule="evenodd" clip-rule="evenodd" d="M56.2889 39.4317C59.0624 31.7199 63.3165 23.0775 58.6051 16.1607C53.7495 9.0322 43.6891 8.51842 34.9491 8.10302C26.2162 7.68797 16.1499 7.24126 10.8813 13.8925C5.77566 20.3381 9.74578 29.2861 11.8503 37.2641C13.7308 44.3929 15.3932 52.1432 21.9618 55.8974C28.7763 59.7923 37.3575 59.1801 44.3373 55.8321C50.8606 52.703 53.8909 46.0992 56.2889 39.4317Z" fill="#DDEDF9"/>
<path d="M22.2429 7.41358C22.194 7.44507 22.1479 7.48005 22.1049 7.51818C21.292 8.23484 21.5868 9.94618 21.5094 10.8977C21.3754 12.5072 21.2791 14.1195 21.1888 15.7308C21.0052 19.0167 20.8702 22.3045 20.7193 25.5914C20.6786 26.464 20.6647 27.344 20.5754 28.2139C20.1079 32.7405 18.9219 36.4806 14.9786 39.4363C12.7583 41.1008 10.2016 42.3286 7.74013 43.6738C6.08262 44.5795 4.33677 46.2238 5.05933 48.1609C5.67568 49.8126 7.54063 51.5955 9.46215 51.8423C10.4547 51.969 11.472 51.7102 12.3613 51.2807C15.2873 49.8667 17.9651 47.5626 20.494 45.62C21.565 44.7942 22.5297 43.8968 23.6701 43.1489C24.8393 42.3799 26.1147 41.6459 26.8372 40.4576C27.2402 39.7941 27.4327 39.0417 27.6104 38.2975C28.2407 35.6208 28.3538 32.8836 28.9136 30.2308C29.4376 27.7533 30.3895 25.3675 31.4525 23.045C33.5606 18.4423 36.8309 13.2624 37.2279 8.1339C37.4155 5.72242 31.246 7.23464 29.6222 7.23556H25.2274C24.3758 7.23831 22.9982 6.93 22.2429 7.41358Z" fill="#F1B441"/>
<path d="M41.4998 7.47975C41.2311 7.73346 41.0823 8.07534 41.0859 8.43039C41.075 10.8162 41.5127 13.4057 41.6576 15.83C41.8313 18.7296 42.0387 21.6274 42.3405 24.517C42.8953 29.8253 43.3786 35.2429 42.1499 40.5054C40.6939 46.7405 34.965 49.8879 29.1915 52.6362C26.6646 53.8392 22.632 54.7008 25.9043 57.527C27.6353 59.0227 30.1473 59.4604 32.441 59.4824C36.4786 59.5201 39.744 58.7704 43.0134 56.5773C46.2827 54.3842 51.8697 52.2544 51.5947 47.8885C51.4707 45.933 50.6489 44.0419 50.6687 42.0828C50.6895 40.0402 51.6176 38.1123 52.4701 36.2275C56.3211 27.7167 59.1061 18.1781 56.738 8.97453C56.5861 8.38543 56.3469 7.72659 55.7454 7.48893C55.4834 7.38524 55.1896 7.37973 54.9048 7.37606L42.5082 7.22007C42.2786 7.20439 42.0478 7.22772 41.8273 7.28889C41.7053 7.33135 41.5939 7.39628 41.4998 7.47975Z" fill="#F1B441"/>
<path d="M9.98131 42.3451C10.0024 42.0936 10.104 41.8536 10.2731 41.6557C10.4423 41.4578 10.6714 41.311 10.9312 41.2339C11.0026 39.9584 12.2701 38.9536 13.6189 38.6728C15.0303 38.3774 16.5558 38.7426 17.6882 39.5638C18.2927 40.0025 18.78 40.5576 19.3547 41.032C19.7626 41.3724 20.2271 41.6789 20.7531 41.8413C21.3566 42.0249 21.972 41.8973 22.5794 41.7753C22.9337 41.7037 23.294 41.6303 23.6096 41.467C24.4175 41.0485 24.3401 40.2741 24.1486 39.5519L23.3387 36.4825C23.2156 36.0154 23.1491 35.4686 22.9278 35.0354C22.7111 34.6457 22.4226 34.2939 22.0752 33.9958C21.7284 33.6682 21.3126 33.4099 20.8534 33.2369C20.3919 33.0763 19.8906 33.1534 19.441 32.9672C19.1552 32.8497 19.2227 32.8249 19.3249 32.5478C19.4238 32.3133 19.4979 32.0706 19.5462 31.8229C19.58 31.6027 19.4887 31.4283 19.4271 31.2063C19.1605 30.2528 19.1667 29.2517 19.445 28.3011C19.5085 28.0855 19.5929 27.8643 19.7666 27.7093C20.1745 27.3422 20.6599 27.5643 21.0261 27.8396C21.6405 28.2984 22.2439 28.7663 23.0379 28.9214C23.832 29.0765 24.5347 29.1499 25.0974 29.7363C25.2771 29.9198 25.5679 29.9721 25.8368 29.9895C26.5212 30.0282 27.2064 29.9258 27.8427 29.6897C28.479 29.4535 29.0506 29.0896 29.5161 28.6241C29.5687 28.5709 29.6074 29.2664 29.5975 29.3142C29.5469 29.5949 29.4367 29.8647 29.3871 30.14C29.2928 30.6612 29.1886 31.1806 29.0893 31.6999C28.8372 33.0681 28.6655 34.4482 28.4244 35.8191C28.3013 36.522 28.1593 37.223 27.9797 37.9158C27.8139 38.5581 27.4963 39.1702 27.3673 39.8079C27.2294 40.4934 27.3673 41.2036 26.9475 41.8267C26.749 42.1166 26.4512 42.3332 26.1535 42.5323C25.3889 43.0364 24.5656 43.4597 23.699 43.794C21.437 44.6648 19.7864 46.5413 17.9423 47.9673C17.8044 48.0746 17.585 48.1774 17.4659 48.0526C17.4198 47.9919 17.3974 47.9184 17.4024 47.8443C17.3687 47.2185 17.3458 46.5817 17.1314 45.9871C16.6272 44.5877 15.1801 43.6848 13.7718 42.9911C13.2106 42.7152 12.6406 42.4552 12.0616 42.2111C11.822 42.0962 11.5628 42.0198 11.2954 41.9854C10.8299 41.9478 10.3873 42.1552 9.97437 42.3524C9.97659 42.3499 9.9789 42.3475 9.98131 42.3451Z" fill="#1F4C7C"/>
<path d="M28.8145 30.6787L29.0637 30.3254C29.3763 29.8822 29.5182 29.2766 29.7654 28.7967C29.8894 28.5581 30.0244 28.3149 30.2448 28.1461C30.6309 27.8488 31.3713 27.9194 31.54 28.4104C31.5849 28.5766 31.5933 28.7494 31.5648 28.9187C31.4308 30.1529 31.0298 31.3458 30.6626 32.5323C30.4095 33.3489 30.1664 34.1665 29.9152 34.9841C29.6989 35.7026 29.6751 36.89 28.6786 37.079C28.2637 37.157 27.7853 37.0295 27.7367 36.645C27.7158 36.466 27.8131 36.2192 27.8458 36.0421L28.2071 34.0408L28.8096 30.7071L28.8145 30.6787Z" fill="#1F4C7C" stroke="#1F4C7C" stroke-miterlimit="10"/>
<path d="M41.6993 19.0278C41.876 19.0058 42.1172 19.0975 42.2948 19.1351C43.6476 19.4104 45.0104 19.7701 46.3999 19.827C48.2013 19.9032 50.0117 19.7628 51.8062 19.6554C52.8966 19.5894 53.9847 19.4976 55.0706 19.3801C55.5341 19.3306 57.6194 18.7892 57.8387 19.2765C57.9092 19.4324 57.8774 19.6105 57.8447 19.7766C56.9643 24.26 55.8894 28.648 54.2249 32.947C53.0399 36.0081 50.769 39.2867 51.0102 42.6204C51.1948 45.1704 52.4463 47.6361 51.3546 50.1705C50.6439 51.8222 49.1005 53.027 47.583 54.1162C45.3627 55.7101 43.0482 57.2214 40.4884 58.2959C37.5893 59.5136 34.6197 59.9375 31.4565 59.6953C29.7871 59.5668 28.0333 59.2548 26.6031 58.4051C25.3823 57.6793 23.4439 55.8918 24.7758 54.542C25.145 54.1676 25.6413 53.9244 26.1257 53.6886C29.7285 51.9387 33.5894 50.4091 36.6911 47.9288C40.6185 44.7878 42.0656 40.1346 42.4338 35.475C42.809 30.7282 42.1668 25.942 41.6864 21.2245C41.6437 20.8034 41.5872 20.3831 41.5385 19.9628C41.5137 19.7353 41.4313 19.504 41.4631 19.2746C41.4929 19.1085 41.5822 19.0425 41.6993 19.0278Z" fill="#F2FFDD"/>
<path d="M35.497 53.6914C34.03 53.0178 32.433 52.6233 30.8321 52.2966C30.3979 52.2015 29.9572 52.1341 29.513 52.0947C28.3855 52.6251 27.2521 53.1426 26.1444 53.6813C25.877 53.8067 25.6167 53.9445 25.3643 54.0942C25.1154 54.284 24.8775 54.4859 24.6517 54.6989C23.6165 56.0258 25.4457 57.7013 26.6218 58.3978C28.0521 59.2475 29.8058 59.5595 31.4753 59.6879C34.4032 59.9127 37.1684 59.5631 39.865 58.5428C39.9464 57.9656 39.6 57.2829 39.1613 56.6259C38.3048 55.3366 36.9639 54.3649 35.497 53.6914Z" fill="#517AA4"/>
</svg>
