<svg width="24" height="24" viewBox="0 0 24 24" fill="none" xmlns="http://www.w3.org/2000/svg">
<path d="M17.5 8.66667H19.1667C19.3877 8.66667 19.5996 8.75196 19.7559 8.90377C19.9122 9.05559 20 9.26149 20 9.47619V19.1905C20 19.4052 19.9122 19.6111 19.7559 19.7629C19.5996 19.9147 19.3877 20 19.1667 20H5.83333C5.61232 20 5.40036 19.9147 5.24408 19.7629C5.0878 19.6111 5 19.4052 5 19.1905V9.47619C5 9.26149 5.0878 9.05559 5.24408 8.90377C5.40036 8.75196 5.61232 8.66667 5.83333 8.66667H7.5V7.85714C7.5 6.56895 8.02678 5.33352 8.96447 4.42262C9.90215 3.51173 11.1739 3 12.5 3C13.8261 3 15.0979 3.51173 16.0355 4.42262C16.9732 5.33352 17.5 6.56895 17.5 7.85714V8.66667ZM15.8333 8.66667V7.85714C15.8333 6.99835 15.4821 6.17472 14.857 5.56746C14.2319 4.9602 13.3841 4.61905 12.5 4.61905C11.6159 4.61905 10.7681 4.9602 10.143 5.56746C9.51786 6.17472 9.16667 6.99835 9.16667 7.85714V8.66667H15.8333Z" fill="#517AA4"/>
</svg>
