<svg width="42" height="42" viewBox="0 0 42 42" fill="none" xmlns="http://www.w3.org/2000/svg">
<path fill-rule="evenodd" clip-rule="evenodd" d="M38.5 21C38.5 30.665 30.665 38.5 21 38.5C11.335 38.5 3.5 30.665 3.5 21C3.5 11.335 11.335 3.5 21 3.5C30.665 3.5 38.5 11.335 38.5 21ZM7.00295 21C7.00295 28.7304 13.2696 34.9971 21 34.9971C28.7304 34.9971 34.9971 28.7304 34.9971 21C34.9971 13.2696 28.7304 7.00295 21 7.00295C13.2696 7.00295 7.00295 13.2696 7.00295 21ZM22.75 21.75C22.75 22.3023 22.3023 22.75 21.75 22.75H20.25C19.6977 22.75 19.25 22.3023 19.25 21.75V13.25C19.25 12.6977 19.6977 12.25 20.25 12.25H21.75C22.3023 12.25 22.75 12.6977 22.75 13.25V21.75ZM21.1875 29.75C22.2921 29.75 23.1875 28.8546 23.1875 27.75V27.375C23.1875 26.2704 22.2921 25.375 21.1875 25.375H20.8125C19.7079 25.375 18.8125 26.2704 18.8125 27.375V27.75C18.8125 28.8546 19.7079 29.75 20.8125 29.75H21.1875Z" fill="#1F4C7C"/>
</svg>
