<svg width="200" height="61" viewBox="0 0 200 61" fill="none" xmlns="http://www.w3.org/2000/svg">
<g clip-path="url(#clip0_12481_21719)">
<path d="M184.651 30.8017C177.89 30.8017 172.387 25.2915 172.396 18.5304C172.396 11.7693 177.906 6.26722 184.667 6.2754C191.428 6.28358 196.93 11.7857 196.922 18.5467C196.922 25.3078 191.412 30.8099 184.651 30.8017ZM184.659 7.15835C178.38 7.15835 173.27 12.2598 173.27 18.5386C173.27 24.8173 178.372 29.927 184.651 29.927C190.929 29.927 196.039 24.8255 196.039 18.5467C196.039 12.268 190.938 7.15835 184.659 7.15835Z" fill="#76BC21"/>
<path d="M183.416 35.6826C178.233 35.6826 173.63 24.425 173.418 23.8936C172.747 22.3076 171.995 20.9014 171.267 19.5443C169.452 16.1433 167.883 13.2002 169.412 10.1589C172.052 5.90766 175.699 6.21015 178.911 6.47994C180.759 6.63527 182.5 6.77425 183.743 5.98124C189.597 2.25323 194.028 1.65642 196.914 4.22351C200.47 7.37924 200.454 14.0341 196.881 22.0378C192.891 30.9654 188.24 35.6908 183.432 35.6908L183.416 35.6826ZM176.459 7.21573C174.145 7.21573 171.921 7.77983 170.172 10.584C168.864 13.1838 170.262 15.8081 172.036 19.1274C172.739 20.4436 173.532 21.9315 174.219 23.5503C174.268 23.6729 178.797 34.7997 183.408 34.7997C187.839 34.7997 192.213 30.2541 196.055 21.6699C199.465 14.0422 199.563 7.76348 196.309 4.87755C193.75 2.60478 189.67 3.22611 184.193 6.71703C182.697 7.67355 180.816 7.51004 178.822 7.34653C178.029 7.28113 177.236 7.21573 176.451 7.21573H176.459Z" fill="#76BC21"/>
<path d="M180.097 31.4226C176.14 31.4226 173.393 30.4171 171.921 28.4386C169.452 25.1357 171.03 20.0669 172.183 16.3635C172.298 15.9956 172.404 15.6522 172.502 15.317C172.706 14.6303 172.894 13.9435 173.074 13.265C174.309 8.69489 175.478 4.37008 181.789 3.17646C188.918 1.83569 194.96 10.9513 195.279 11.4418C199.456 17.4917 200.65 21.048 199.685 24.5553C198.475 28.9455 191.992 31.2509 180.424 31.3981C180.318 31.3981 180.211 31.3981 180.105 31.3981L180.097 31.4226ZM183.22 4.2311C182.819 4.2311 182.411 4.2638 182.002 4.34555C176.418 5.40018 175.388 9.19359 174.202 13.5838C174.014 14.2705 173.826 14.9655 173.622 15.6685C173.524 16.0037 173.409 16.3553 173.295 16.7232C172.216 20.1814 170.744 24.9232 172.853 27.7437C174.129 29.4523 176.663 30.3189 180.399 30.2454C194.085 30.0655 197.821 26.8934 198.541 24.2609C199.399 21.1297 198.255 17.8432 194.298 12.1204V12.1041C194.232 12.0223 189.106 4.2311 183.212 4.2311H183.22Z" fill="#76BC21"/>
<path d="M32.1622 16.2253C32.1622 16.634 32.0314 16.9774 31.827 17.3862L17.9451 46.4008C17.5445 47.2184 16.9395 47.7661 15.9993 47.7661C15.0592 47.7661 14.5932 47.2184 14.1926 46.4008L0.26979 17.3044C0.0654036 16.8303 0 16.4869 0 16.2171C0 15.2606 0.670387 14.5166 1.67597 14.5166C2.55074 14.5166 2.95134 14.86 3.41734 15.8083L16.0648 42.6565H16.1956L28.8675 15.6857C29.2681 14.8681 29.8077 14.5248 30.5435 14.5248C31.5491 14.5248 32.154 15.2033 32.1459 16.2253H32.1622Z" fill="#76BC21"/>
<path d="M43.665 16.5029L43.6487 45.8609C43.6487 47.0218 43.0437 47.7658 41.9073 47.7658C40.8363 47.7658 40.2313 47.0136 40.2313 45.8609L40.2477 16.5029C40.2477 15.2766 40.8527 14.5244 41.9237 14.5244C43.06 14.5244 43.665 15.2766 43.665 16.5029Z" fill="#76BC21"/>
<path d="M83.9128 16.2497C83.9128 16.6585 83.782 17.0018 83.5776 17.4106L69.6957 46.4253C69.2951 47.2428 68.6901 47.7906 67.75 47.7906C66.8098 47.7906 66.3438 47.2428 65.9432 46.4253L52.0204 17.3288C51.816 16.8547 51.7506 16.5113 51.7506 16.2415C51.7506 15.285 52.421 14.541 53.4266 14.541C54.3013 14.541 54.702 14.8844 55.168 15.8327L67.8154 42.6809H67.9462L80.6181 15.7101C81.0187 14.8926 81.5583 14.5492 82.2941 14.5492C83.2997 14.5492 83.9046 15.2278 83.8965 16.2497H83.9128Z" fill="#76BC21"/>
<path d="M119.999 17.3614C119.999 15.8489 119.133 14.9006 117.743 14.9006C116.41 14.9006 115.544 15.8653 115.544 17.3532V20.0675L114.652 19.1191C111.807 16.0942 107.679 14.5 102.716 14.5C93.0693 14.5 86.3327 21.4164 86.3327 31.3251C86.3327 41.2337 93.0611 48.1583 102.7 48.1665C107.671 48.1665 111.799 46.5723 114.644 43.5555L115.535 42.6072V45.3868C115.535 46.8421 116.394 47.7822 117.726 47.7822C119.059 47.7822 119.991 46.8421 119.991 45.395L120.007 17.3532L119.999 17.3614ZM103.158 43.9153C95.7917 43.9153 90.8455 38.8547 90.8537 31.3332C90.8537 23.8118 95.808 18.7594 103.174 18.7676C110.581 18.7676 115.552 23.8282 115.544 31.3496C115.544 38.7484 110.45 43.9234 103.158 43.9153Z" fill="#2196CE"/>
<path d="M133.783 2.73525C133.783 1.28002 132.892 0.339844 131.518 0.339844C130.186 0.339844 129.319 1.28002 129.319 2.72707L129.303 45.4029C129.303 46.8581 130.161 47.7983 131.494 47.7983C132.826 47.7983 133.759 46.8581 133.759 45.4111L133.775 2.73525H133.783Z" fill="#2196CE"/>
<path d="M148.049 2.73525C148.049 1.28002 147.166 0.339844 145.793 0.339844C144.46 0.339844 143.594 1.28002 143.594 2.72707L143.577 45.4029C143.577 46.8581 144.436 47.7983 145.768 47.7983C147.142 47.7983 148.033 46.8581 148.033 45.4111L148.049 2.73525Z" fill="#2196CE"/>
<path d="M187.161 30.6871C187.161 30.5154 187.144 30.3437 187.12 30.1802V17.3611C187.12 16.0367 186.04 14.9493 184.708 14.9493C183.375 14.9493 182.296 16.0285 182.296 17.3611L182.272 35.0691C181.013 40.5058 177.105 43.6206 171.545 43.6206C164.85 43.6206 161.318 39.7863 161.318 32.5429V17.3856C161.318 15.8895 160.468 14.9248 159.127 14.9248C157.729 14.9248 156.862 15.865 156.862 17.3774V32.7963C156.854 42.5169 161.833 47.88 170.883 47.88C175.38 47.88 179.149 46.3921 181.781 43.5797L182.672 42.6232V44.6507C182.672 51.7879 178.405 56.0473 171.267 56.0473C166.91 56.0473 163.967 54.8046 161.122 51.7715C160.762 51.4118 160.157 51.1584 159.626 51.1584C158.309 51.1584 157.426 52.0413 157.426 53.3494C157.426 53.8481 157.582 54.355 157.852 54.7147C160.427 58.3201 165.209 60.2985 171.333 60.2985C181.078 60.2985 187.128 54.2814 187.136 44.5771V30.6789L187.161 30.6871Z" fill="#2196CE"/>
<path d="M191.944 47.9512V44.9536H192.894C193.286 44.9536 193.582 45.0288 193.783 45.1792C193.983 45.3296 194.084 45.5575 194.084 45.8628C194.084 46.0588 194.045 46.2262 193.967 46.3652C193.89 46.502 193.766 46.6102 193.595 46.6899L194.268 47.9512H193.482L192.959 46.8164H192.665V47.9512H191.944ZM192.665 46.3071H192.853C193.008 46.3071 193.129 46.2752 193.215 46.2114C193.304 46.1453 193.349 46.0394 193.349 45.8936C193.349 45.7591 193.311 45.6634 193.236 45.6064C193.161 45.5495 193.035 45.521 192.86 45.521H192.665V46.3071ZM192.973 49.0688C192.585 49.0688 192.233 49.0039 191.917 48.874C191.602 48.7441 191.332 48.5641 191.107 48.334C190.881 48.1016 190.707 47.8304 190.584 47.5205C190.463 47.2083 190.402 46.8711 190.402 46.5088C190.402 46.126 190.469 45.7773 190.601 45.4629C190.735 45.1462 190.921 44.8739 191.158 44.646C191.395 44.4181 191.671 44.2427 191.985 44.1196C192.302 43.9943 192.642 43.9316 193.007 43.9316C193.383 43.9316 193.728 43.9966 194.043 44.1265C194.359 44.2563 194.634 44.4375 194.866 44.6699C195.099 44.9023 195.279 45.1758 195.406 45.4902C195.534 45.8047 195.598 46.1465 195.598 46.5156C195.598 46.8893 195.532 47.2323 195.4 47.5444C195.27 47.8566 195.086 48.1266 194.849 48.3545C194.612 48.5824 194.334 48.759 194.015 48.8843C193.696 49.0073 193.349 49.0688 192.973 49.0688ZM193.021 48.6074C193.321 48.6074 193.596 48.5573 193.844 48.457C194.095 48.3545 194.311 48.2098 194.494 48.0229C194.676 47.8361 194.816 47.6151 194.914 47.3599C195.014 47.1047 195.065 46.8232 195.065 46.5156C195.065 46.1966 195.012 45.9072 194.907 45.6475C194.805 45.3877 194.66 45.1644 194.473 44.9775C194.286 44.7907 194.067 44.6471 193.814 44.5469C193.563 44.4443 193.29 44.3931 192.993 44.3931C192.683 44.3931 192.402 44.4478 192.149 44.5571C191.896 44.6642 191.679 44.8146 191.496 45.0083C191.314 45.1997 191.174 45.4253 191.076 45.6851C190.978 45.9425 190.929 46.2217 190.929 46.5225C190.929 46.8369 190.981 47.1229 191.086 47.3804C191.193 47.6356 191.341 47.8555 191.53 48.04C191.722 48.2223 191.944 48.3625 192.197 48.4604C192.45 48.5584 192.724 48.6074 193.021 48.6074Z" fill="#2196CE"/>
</g>
<defs>
<clipPath id="clip0_12481_21719">
<rect width="200" height="61" fill="white"/>
</clipPath>
</defs>
</svg>
