<svg width="24" height="24" viewBox="0 0 24 24" fill="none" xmlns="http://www.w3.org/2000/svg">
<path d="M12 22C13.9778 22 15.9112 21.4135 17.5557 20.3147C19.2002 19.2159 20.4819 17.6541 21.2388 15.8268C21.9957 13.9996 22.1937 11.9889 21.8079 10.0491C21.422 8.10929 20.4696 6.32746 19.0711 4.92894C17.6725 3.53041 15.8907 2.578 13.9509 2.19215C12.0111 1.8063 10.0004 2.00433 8.17317 2.76121C6.3459 3.51809 4.78412 4.79981 3.6853 6.4443C2.58649 8.08879 2 10.0222 2 12C2 14.6522 3.05357 17.1957 4.92893 19.0711C5.85752 19.9997 6.95991 20.7363 8.17317 21.2388C9.38642 21.7413 10.6868 22 12 22ZM12 20C11.7033 20 11.4133 19.912 11.1666 19.7472C10.92 19.5824 10.7277 19.3481 10.6142 19.074C10.5006 18.7999 10.4709 18.4983 10.5288 18.2074C10.5867 17.9164 10.7296 17.6491 10.9393 17.4393C11.1491 17.2296 11.4164 17.0867 11.7074 17.0288C11.9983 16.9709 12.2999 17.0007 12.574 17.1142C12.8481 17.2277 13.0824 17.42 13.2472 17.6666C13.412 17.9133 13.5 18.2033 13.5 18.5C13.5 18.8978 13.342 19.2794 13.0607 19.5607C12.7794 19.842 12.3978 20 12 20ZM8 8.994C7.98526 8.22572 8.19739 7.47015 8.60987 6.82182C9.02235 6.17349 9.61685 5.66119 10.319 5.349C10.9416 5.07093 11.6243 4.95411 12.3039 5.00934C12.9836 5.06457 13.6384 5.29005 14.208 5.665C14.7332 6.01273 15.1689 6.47958 15.4795 7.02753C15.7902 7.57548 15.967 8.18906 15.9957 8.81829C16.0243 9.44752 15.904 10.0746 15.6444 10.6486C15.3849 11.2225 14.9934 11.727 14.502 12.121C13.8128 12.6521 13.3171 13.3948 13.091 14.235C13.0287 14.4928 12.8665 14.7153 12.6401 14.8535C12.4138 14.9917 12.1418 15.0343 11.884 14.972C11.6262 14.9097 11.4037 14.7475 11.2655 14.5211C11.1273 14.2948 11.0847 14.0228 11.147 13.765C11.4725 12.4949 12.2113 11.3691 13.247 10.565C13.4932 10.3681 13.6893 10.1158 13.8194 9.82869C13.9495 9.54157 14.0099 9.22776 13.9957 8.91286C13.9815 8.59796 13.893 8.29088 13.7375 8.01668C13.582 7.74247 13.3639 7.50889 13.101 7.335C12.8065 7.14221 12.4674 7.02812 12.1162 7.00361C11.7651 6.9791 11.4135 7.04499 11.095 7.195C10.7573 7.35664 10.4737 7.61267 10.2785 7.93213C10.0833 8.25158 9.98479 8.62076 9.995 8.995C9.97777 9.24741 9.8655 9.4839 9.68084 9.65682C9.49617 9.82974 9.25282 9.92625 8.99983 9.92688C8.74684 9.92751 8.50301 9.83223 8.31748 9.66024C8.13195 9.48824 8.0185 9.25232 8 9V8.994Z" fill="#517AA4"/>
</svg>
