<svg xmlns="http://www.w3.org/2000/svg" width="24" height="25" viewBox="0 0 24 25"><defs><style>.a,.c,.d{fill:none;}.b{fill:#454545;}.c{stroke:#454545;stroke-width:2px;}.c,.d{stroke-miterlimit:10;}.e,.f{stroke:none;}.f{fill:#454545;}</style></defs><g transform="translate(0 1)"><path class="a" d="M197.9,550.9h24v24h-24Z" transform="translate(-197.9 -550.9)"/><path class="b" d="M1018.24-227.825h-.018a1.914,1.914,0,0,1-1.642-.969,38.458,38.458,0,0,1-3.245-6.968,1.277,1.277,0,0,1,.89-1.572,1.278,1.278,0,0,1,1.572.89,30.1,30.1,0,0,0,2.453,5.4,30.649,30.649,0,0,0,2.5-5.48,1.277,1.277,0,0,1,1.6-.847,1.277,1.277,0,0,1,.847,1.6,36.492,36.492,0,0,1-3.308,7.018A1.911,1.911,0,0,1,1018.24-227.825Z" transform="translate(-1006.375 243.628)"/><ellipse class="c" cx="8.153" cy="8.153" rx="8.153" ry="8.153" transform="translate(3.883 2.357)"/><g class="d" transform="translate(-973.781 289.734)"><path class="e" d="M992.344-284.11c-1.644-2.28-4.648-5.622-8.009-5.252s-4.981,4.206-5.877,6.625c-1.257,3.394-2.774,7.761-1.282,9.93s6.326,2.031,9.392,1.7c3.437-.37,7.6-1.1,8.745-3.345C996.515-276.808,995.718-279.43,992.344-284.11Z"/><path class="f" d="M 984.85205078125 -289.3905029296875 C 984.6805419921875 -289.3905334472656 984.5084838867188 -289.3812866210938 984.3349609375 -289.3621826171875 C 980.973876953125 -288.9918823242188 979.3541259765625 -285.1558837890625 978.4580688476563 -282.7374877929688 C 977.2008056640625 -279.3436279296875 975.6841430664063 -274.9765625 977.1755981445313 -272.8072814941406 C 978.1981811523438 -271.3200988769531 980.79248046875 -270.917236328125 983.310546875 -270.917236328125 C 984.4652099609375 -270.917236328125 985.6033935546875 -271.0018920898438 986.5673828125 -271.1054992675781 C 990.0042114257813 -271.4750061035156 994.1697387695313 -272.2093505859375 995.3124389648438 -274.4501342773438 C 996.5147705078125 -276.8077392578125 995.7182006835938 -279.4298095703125 992.3441162109375 -284.1104431152344 C 990.785400390625 -286.2729187011719 988.0020751953125 -289.39013671875 984.85205078125 -289.3905029296875 M 984.8515014648438 -290.3905029296875 L 984.8515014648438 -289.3905029296875 L 984.8516845703125 -290.3905029296875 C 988.3221435546875 -290.3901062011719 991.2827758789063 -287.2931213378906 993.1553344726563 -284.6951599121094 C 994.9454956054688 -282.2118225097656 996.0084838867188 -280.3074951171875 996.5005493164063 -278.7022094726563 C 997.03173828125 -276.9691772460938 996.9345092773438 -275.4296875 996.2032470703125 -273.9958190917969 C 995.5580444335938 -272.7305908203125 994.2163696289063 -271.7907104492188 992.1014404296875 -271.1225280761719 C 990.2616577148438 -270.541259765625 988.1229248046875 -270.2669677734375 986.67431640625 -270.1112365722656 C 985.476806640625 -269.9825134277344 984.3450317382813 -269.9172668457031 983.310546875 -269.9172668457031 C 979.7530517578125 -269.9172668457031 977.4116821289063 -270.698974609375 976.3516235351563 -272.2406921386719 C 974.6434326171875 -274.7251892089844 975.9923095703125 -278.9601440429688 977.5203247070313 -283.0848693847656 C 978.0252075195313 -284.4474487304688 978.6741333007813 -286.0256652832031 979.6593017578125 -287.400390625 C 980.9256591796875 -289.1673889160156 982.4619140625 -290.161865234375 984.2254638671875 -290.3561706542969 C 984.4322509765625 -290.3789672851563 984.6428833007813 -290.3905029296875 984.8515014648438 -290.3905029296875 Z"/></g><g class="d" transform="translate(-962.939 292.442)"><path class="e" d="M983.587-291.138c-3.266-3.266-6.906.563-9.831,1.15-3.191.64-7.617-.712-9.084,2.581-1,2.254.343,3.821,3.059,9.217,2.111,4.194,3.786,8.447,7.408,7.651,3.057-.672,6.024-5.559,6.986-7.472C983.4-280.546,986.286-288.438,983.587-291.138Z"/><path class="f" d="M 980.6522216796875 -292.4418640136719 C 978.2523803710938 -292.4421691894531 975.8253784179688 -290.4035339355469 973.75537109375 -289.9884338378906 C 970.5645141601563 -289.3484802246094 966.1388549804688 -290.7008056640625 964.6709594726563 -287.4072265625 C 963.666748046875 -285.1537170410156 965.0134887695313 -283.5864562988281 967.72998046875 -278.1899719238281 C 969.66748046875 -274.3409423828125 971.2382202148438 -270.4418640136719 974.2831420898438 -270.4418640136719 C 974.55615234375 -270.4418640136719 974.8403930664063 -270.4731140136719 975.138427734375 -270.53857421875 C 978.1958618164063 -271.2101440429688 981.1622314453125 -276.0980529785156 982.1246337890625 -278.0101013183594 C 983.4013061523438 -280.546142578125 986.2864990234375 -288.4381408691406 983.5866088867188 -291.1383361816406 C 982.6315307617188 -292.0934143066406 981.6439819335938 -292.4417419433594 980.6522216796875 -292.4418640136719 M 980.6517333984375 -293.4418640136719 L 980.6517333984375 -292.4418640136719 L 980.65185546875 -293.4418640136719 C 982.0093994140625 -293.4417114257813 983.2345581054688 -292.9046020507813 984.293701171875 -291.845458984375 C 985.7182006835938 -290.4207763671875 986.0655517578125 -287.8855590820313 985.3261108398438 -284.3101501464844 C 984.7263793945313 -281.4102478027344 983.593017578125 -278.7029724121094 983.017822265625 -277.5604553222656 C 982.652099609375 -276.8338012695313 979.3294067382813 -270.435302734375 975.3529663085938 -269.5618591308594 C 974.990478515625 -269.4822387695313 974.6304931640625 -269.4418640136719 974.2831420898438 -269.4418640136719 C 972.723876953125 -269.4418640136719 971.3621826171875 -270.2213134765625 970.1202392578125 -271.82470703125 C 969.1200561523438 -273.1159973144531 968.2962646484375 -274.7875366210938 967.424072265625 -276.5571899414063 C 967.2328491210938 -276.9451293945313 967.0350952148438 -277.3462829589844 966.8367919921875 -277.7403564453125 C 966.3182983398438 -278.7702941894531 965.849853515625 -279.6602478027344 965.4365234375 -280.4454345703125 C 963.6470947265625 -283.8446655273438 962.7489624023438 -285.5509033203125 963.757568359375 -287.8142700195313 C 964.3386840820313 -289.1181640625 965.378173828125 -289.9897766113281 966.8471069335938 -290.4049377441406 C 968.033203125 -290.7401428222656 969.3638305664063 -290.755859375 970.6506958007813 -290.7710876464844 C 971.7008056640625 -290.7834777832031 972.6926879882813 -290.7952270507813 973.5587158203125 -290.9689025878906 C 974.293701171875 -291.1163024902344 975.1519775390625 -291.5386352539063 976.0606689453125 -291.9857788085938 C 977.4476928710938 -292.6683044433594 979.019775390625 -293.4418640136719 980.6517333984375 -293.4418640136719 Z"/></g></g></svg>