<svg width="24" height="24" viewBox="0 0 24 24" fill="none" xmlns="http://www.w3.org/2000/svg">
<path fill-rule="evenodd" clip-rule="evenodd" d="M7.01123 1.93832C7.56352 1.93832 8.01123 2.38604 8.01123 2.93832V3.93832H15.9587V2.93832C15.9587 2.38604 16.4065 1.93832 16.9587 1.93832C17.511 1.93832 17.9587 2.38604 17.9587 2.93832V3.93832H20C21.6569 3.93832 23 5.28147 23 6.93832V18.9383C23 20.5952 21.6569 21.9383 20 21.9383H4C2.34315 21.9383 1 20.5952 1 18.9383V6.93832C1 5.28147 2.34315 3.93832 4 3.93832H6.01123V2.93832C6.01123 2.38604 6.45895 1.93832 7.01123 1.93832ZM15.9587 5.93832V6.93832C15.9587 7.49061 16.4065 7.93832 16.9587 7.93832C17.511 7.93832 17.9587 7.49061 17.9587 6.93832V5.93832H20C20.5523 5.93832 21 6.38604 21 6.93832V9.56168H3V6.93832C3 6.38604 3.44772 5.93832 4 5.93832H6.01123V6.93832C6.01123 7.49061 6.45895 7.93832 7.01123 7.93832C7.56352 7.93832 8.01123 7.49061 8.01123 6.93832V5.93832H15.9587ZM3 11.5617V18.9383C3 19.4906 3.44772 19.9383 4 19.9383H20C20.5523 19.9383 21 19.4906 21 18.9383V11.5617H3Z" fill="#1F4C7C"/>
</svg>
