<svg width="21" height="20" viewBox="0 0 21 20" fill="none" xmlns="http://www.w3.org/2000/svg">
<path fill-rule="evenodd" clip-rule="evenodd" d="M10.8795 0L10.8886 0C11.3889 0 11.7891 0.400182 11.7891 0.900409V1.78263C11.7891 2.28286 11.3889 2.68304 10.8795 2.67394H10.8705C10.3702 2.67394 9.97004 2.27376 9.97004 1.77353V0.900409C9.97004 0.400182 10.3702 0 10.8795 0ZM5.46801 3.26414L5.11331 2.90943C4.7586 2.55472 4.18561 2.56382 3.84 2.90943L3.83091 2.91852C3.4762 3.27323 3.4762 3.84622 3.83091 4.19183L4.18561 4.54654C4.54032 4.90124 5.10421 4.90124 5.45892 4.54654L5.46801 4.53744C5.82272 4.19183 5.82272 3.60975 5.46801 3.26414ZM2.7031 9.04886H1.77541C1.27518 9.04886 0.875 9.44904 0.875 9.94927V9.95836C0.875 10.4586 1.27518 10.8588 1.77541 10.8588H2.69401C3.20333 10.8679 3.60351 10.4677 3.60351 9.96746V9.95836C3.60351 9.44904 3.20333 9.04886 2.7031 9.04886ZM17.9284 2.92108C17.5737 2.56638 17.0007 2.56638 16.646 2.91199L16.2913 3.26669C15.9366 3.6214 15.9366 4.19439 16.2913 4.54L16.3004 4.5491C16.6551 4.9038 17.2281 4.9038 17.5737 4.5491L17.9284 4.19439C18.2831 3.83968 18.2831 3.27579 17.9284 2.92108ZM16.6369 17.006L16.2822 16.6513C15.9275 16.2966 15.9275 15.7327 16.2913 15.3689C16.6369 15.0233 17.2099 15.0142 17.5646 15.3689L17.9193 15.7236C18.274 16.0783 18.274 16.6513 17.9193 17.006C17.5646 17.3607 16.9916 17.3607 16.6369 17.006ZM18.1556 9.94927V9.95836C18.1556 10.4586 18.5558 10.8588 19.056 10.8588H19.9746C20.4748 10.8588 20.875 10.4586 20.875 9.95836V9.94927C20.875 9.44904 20.4748 9.04886 19.9746 9.04886H19.056C18.5558 9.04886 18.1556 9.44904 18.1556 9.94927ZM5.42252 9.95836C5.42252 6.9479 7.86909 4.50134 10.8795 4.50134C13.89 4.50134 16.3366 6.9479 16.3366 9.95836C16.3366 12.9688 13.89 15.4154 10.8795 15.4154C7.86909 15.4154 5.42252 12.9688 5.42252 9.95836ZM10.8705 19.919H10.8795C11.3798 19.919 11.78 19.5188 11.78 19.0186V18.1455C11.78 17.6452 11.3798 17.2451 10.8795 17.2451H10.8705C10.3702 17.2451 9.97004 17.6452 9.97004 18.1455V19.0186C9.97004 19.5188 10.3702 19.919 10.8705 19.919ZM5.11312 16.9988C4.75842 17.3535 4.18543 17.3535 3.83072 16.9988C3.47602 16.6441 3.47602 16.0802 3.82163 15.7164L4.17633 15.3617C4.34626 15.1914 4.57695 15.0956 4.81753 15.0956C5.05811 15.0956 5.28881 15.1914 5.45874 15.3617L5.46783 15.3708C5.81344 15.7164 5.82254 16.2894 5.46783 16.6441L5.11312 16.9988Z" fill="#DDEDF9"/>
</svg>
