<svg width="25" height="23" viewBox="0 0 25 23" fill="none" xmlns="http://www.w3.org/2000/svg">
<path d="M22.7915 12.3543C22.5603 13.3155 22.1857 14.2569 21.6596 15.1387H23.4357C23.8359 15.2694 24.125 15.6457 24.125 16.0895C24.125 16.6418 23.6773 17.0895 23.125 17.0895H1.125C0.572715 17.0895 0.125 16.6418 0.125 16.0895C0.125 15.6457 0.414106 15.2694 0.814258 15.1387H4.50974C2.42813 11.6673 2.59393 7.11842 5.26678 3.76324C6.20141 2.59002 7.35836 1.68339 8.6252 1.05609C8.96843 0.882034 9.38124 1.13419 9.35393 1.52155C9.14177 4.67671 10.429 7.87563 13.0883 9.99413C15.7476 12.1126 19.1533 12.6522 22.1812 11.7402C22.5464 11.6348 22.8845 11.9808 22.7915 12.3543Z" fill="#DDEDF9"/>
<path d="M7.125 21.2395C6.65556 21.2395 6.275 21.62 6.275 22.0895C6.275 22.5589 6.65556 22.9395 7.125 22.9395H17.125C17.5944 22.9395 17.975 22.5589 17.975 22.0895C17.975 21.62 17.5944 21.2395 17.125 21.2395H7.125Z" fill="#DDEDF9"/>
<path d="M4.275 19.0895C4.275 18.62 4.65556 18.2395 5.125 18.2395H19.125C19.5944 18.2395 19.975 18.62 19.975 19.0895C19.975 19.5589 19.5944 19.9395 19.125 19.9395H5.125C4.65556 19.9395 4.275 19.5589 4.275 19.0895Z" fill="#DDEDF9"/>
</svg>
