<svg width="24" height="24" viewBox="0 0 24 24" fill="none" xmlns="http://www.w3.org/2000/svg">
<path d="M13.6886 21H10.312C10.1004 21 9.89523 20.9299 9.73039 20.8012C9.56555 20.6726 9.451 20.4931 9.40572 20.2926L9.02818 18.597C8.52453 18.3829 8.04697 18.1151 7.60428 17.7987L5.90023 18.3252C5.69853 18.3876 5.4809 18.3812 5.28348 18.307C5.08605 18.2329 4.92071 18.0954 4.81491 17.9175L3.12293 15.0816C3.01824 14.9035 2.97895 14.6962 3.01147 14.4937C3.04399 14.2911 3.14641 14.1052 3.30196 13.9665L4.62382 12.7965C4.56371 12.2665 4.56371 11.7317 4.62382 11.2017L3.30196 10.0344C3.14619 9.8956 3.04363 9.70957 3.0111 9.5068C2.97858 9.30404 3.01801 9.09657 3.12293 8.9184L4.8112 6.0807C4.917 5.90278 5.08234 5.76533 5.27977 5.69117C5.47719 5.61701 5.69482 5.61059 5.89652 5.673L7.60057 6.1995C7.82691 6.0375 8.06252 5.8863 8.30556 5.7495C8.54025 5.6217 8.78143 5.5056 9.02818 5.4021L9.40665 3.7083C9.45171 3.50778 9.56605 3.32822 9.73071 3.19939C9.89538 3.07057 10.1005 3.00022 10.312 3H13.6886C13.9001 3.00022 14.1052 3.07057 14.2699 3.19939C14.4345 3.32822 14.5489 3.50778 14.5939 3.7083L14.9761 5.403C15.4791 5.61834 15.9565 5.88601 16.4 6.2013L18.105 5.6748C18.3065 5.61262 18.524 5.61915 18.7212 5.6933C18.9184 5.76746 19.0836 5.90478 19.1894 6.0825L20.8776 8.9202C21.0928 9.2865 21.0186 9.75 20.6986 10.0353L19.3767 11.2053C19.4369 11.7353 19.4369 12.2701 19.3767 12.8001L20.6986 13.9701C21.0186 14.2563 21.0928 14.7189 20.8776 15.0852L19.1894 17.9229C19.0836 18.1008 18.9182 18.2383 18.7208 18.3124C18.5234 18.3866 18.3057 18.393 18.104 18.3306L16.4 17.8041C15.9576 18.1203 15.4804 18.3878 14.977 18.6015L14.5939 20.2926C14.5487 20.493 14.4343 20.6723 14.2696 20.801C14.105 20.9296 13.9 20.9998 13.6886 21ZM11.9966 8.4C11.0125 8.4 10.0687 8.77928 9.37286 9.45442C8.67701 10.1295 8.28608 11.0452 8.28608 12C8.28608 12.9548 8.67701 13.8705 9.37286 14.5456C10.0687 15.2207 11.0125 15.6 11.9966 15.6C12.9807 15.6 13.9244 15.2207 14.6203 14.5456C15.3161 13.8705 15.7071 12.9548 15.7071 12C15.7071 11.0452 15.3161 10.1295 14.6203 9.45442C13.9244 8.77928 12.9807 8.4 11.9966 8.4Z" fill="#517AA4"/>
</svg>
