<svg width="24" height="24" viewBox="0 0 24 24" fill="none" xmlns="http://www.w3.org/2000/svg">
<path fill-rule="evenodd" clip-rule="evenodd" d="M15 4.89282C15 6.55282 13.66 7.89282 12 7.89282C10.34 7.89282 9 6.55282 9 4.89282C9 3.23282 10.34 1.89282 12 1.89282C13.66 1.89282 15 3.23282 15 4.89282ZM5.32 8.09282C7.88 8.55282 10.18 9.74282 12 11.4428C13.82 9.74282 16.12 8.55282 18.68 8.09282C19.89 7.88282 21 8.84282 21 10.0728V16.9928C21 17.9528 20.23 18.8828 19.29 19.0128C16.77 19.3328 14.48 20.3828 12.61 21.9128C12.26 22.1928 11.69 22.1628 11.34 21.8728C9.48 20.3528 7.21 19.3228 4.71 19.0028C3.72 18.8728 3 17.9928 3 16.3128V10.0728C3 8.84282 4.11 7.88282 5.32 8.09282Z" fill="#517AA4"/>
</svg>
