<svg xmlns="http://www.w3.org/2000/svg" width="27" height="24" viewBox="0 0 27 24"><defs><style>.a,.b{fill:none;}.b{stroke:#000;stroke-linecap:round;stroke-linejoin:round;stroke-width:3px;}</style></defs><g transform="translate(1.301)"><path class="a" d="M317.9,552.9h24v24h-24Z" transform="translate(-317.9 -552.9)"/><path class="b" d="M19.5,18A1.5,1.5,0,1,1,18,16.5,1.5,1.5,0,0,1,19.5,18Z" transform="translate(-5.801 -6.5)"/><path class="b" d="M30,18a1.5,1.5,0,1,1-1.5-1.5A1.5,1.5,0,0,1,30,18Z" transform="translate(-5.801 -6.5)"/><path class="b" d="M9,18a1.5,1.5,0,1,1-1.5-1.5A1.5,1.5,0,0,1,9,18Z" transform="translate(-5.801 -6.5)"/></g></svg>