<svg xmlns="http://www.w3.org/2000/svg" width="291.916" height="309" viewBox="0 0 291.916 309"><defs><style>.a,.b,.c,.e{fill:none;}.a{stroke:rgba(255,255,255,0.24);stroke-width:3px;}.a,.b{stroke-miterlimit:10;}.d,.f,.g{stroke:none;}.f{fill:rgba(255,255,255,0.24);}.g{fill:rgba(255,255,255,0.16);}</style></defs><g transform="translate(-1.021 31.341)"><g transform="translate(77.26 47.182)"><g class="a" transform="translate(15.661 16.28)"><ellipse class="d" cx="57.319" cy="56.313" rx="57.319" ry="56.313"/><ellipse class="e" cx="57.319" cy="56.313" rx="55.819" ry="54.813"/></g><g class="b" transform="translate(-968.678 291.765)"><path class="d" d="M1087.545-252.921c-11.555-15.749-32.679-38.831-56.308-36.274s-35.016,29.053-41.315,45.757c-8.84,23.441-19.5,53.6-9.016,68.588s44.47,14.031,66.027,11.754c24.161-2.552,53.447-7.624,61.48-23.1C1116.866-202.482,1111.265-220.592,1087.545-252.921Z"/><path class="f" d="M 1034.872436523438 -289.3904418945313 C 1033.666748046875 -289.3905639648438 1032.456909179688 -289.3268737792969 1031.23681640625 -289.19482421875 C 1007.608154296875 -286.6372680664063 996.2208251953125 -260.1423034667969 989.921630859375 -243.438232421875 C 981.0819091796875 -219.9971771240234 970.419189453125 -189.8336791992188 980.905517578125 -174.8507080078125 C 988.0943603515625 -164.578857421875 1006.332885742188 -161.7963562011719 1024.035400390625 -161.7963562011719 C 1032.153076171875 -161.7963562011719 1040.1552734375 -162.3809509277344 1046.9326171875 -163.0966796875 C 1071.094116210938 -165.6487426757813 1100.37939453125 -170.7208251953125 1108.412719726563 -186.1978454589844 C 1116.8662109375 -202.4817047119141 1111.2646484375 -220.5924072265625 1087.545043945313 -252.9211578369141 C 1076.587158203125 -267.8572998046875 1057.0185546875 -289.3880615234375 1034.872436523438 -289.3904418945313 M 1034.868286132813 -292.3904418945313 L 1034.868408203125 -292.3904418945313 L 1034.872924804688 -292.3904418945313 C 1045.3916015625 -292.3892822265625 1056.295776367188 -287.9161987304688 1067.282470703125 -279.0953063964844 C 1071.53466796875 -275.6813049316406 1075.824462890625 -271.5888061523438 1080.032348632813 -266.9315490722656 C 1083.401977539063 -263.2021484375 1086.743408203125 -259.08544921875 1089.9638671875 -254.6957550048828 C 1096.089599609375 -246.3466491699219 1100.878173828125 -239.132080078125 1104.603271484375 -232.6398468017578 C 1108.474609375 -225.8925018310547 1111.19091796875 -219.9380493164063 1112.90771484375 -214.4362335205078 C 1114.66796875 -208.7942352294922 1115.367919921875 -203.6637573242188 1115.047607421875 -198.7516479492188 C 1114.732299804688 -193.9155578613281 1113.432861328125 -189.3570251464844 1111.075317382813 -184.8156127929688 C 1108.92724609375 -180.6770629882813 1105.342041015625 -176.9987182617188 1100.419677734375 -173.8829345703125 C 1096.222290039063 -171.2261657714844 1090.903198242188 -168.8886413574219 1084.610107421875 -166.9352416992188 C 1072.02294921875 -163.0282592773438 1057.258422851563 -161.170654296875 1047.247802734375 -160.11328125 C 1038.973022460938 -159.2394409179688 1031.163330078125 -158.7963562011719 1024.035400390625 -158.7963562011719 C 1013.73583984375 -158.7963562011719 1004.901733398438 -159.7284545898438 997.7781982421875 -161.5667419433594 C 993.515625 -162.6667785644531 989.789794921875 -164.1145935058594 986.7044677734375 -165.8699951171875 C 983.203369140625 -167.8619384765625 980.42529296875 -170.3047180175781 978.4476318359375 -173.1305541992188 C 973.270263671875 -180.5281066894531 972.2158203125 -191.4626770019531 975.22412109375 -206.5590057373047 C 977.722412109375 -219.095703125 982.671630859375 -232.7151489257813 987.1146240234375 -244.4967803955078 C 988.5552978515625 -248.3171539306641 990.526611328125 -253.3688354492188 993.003662109375 -258.5658569335938 C 995.7435302734375 -264.3140869140625 998.573974609375 -269.1629028320313 1001.656982421875 -273.389404296875 C 1005.429321289063 -278.5610046386719 1009.579467773438 -282.730712890625 1013.992309570313 -285.7827758789063 C 1019.182373046875 -289.3723754882813 1024.875610351563 -291.5238342285156 1030.913940429688 -292.1773986816406 C 1032.220092773438 -292.3187561035156 1033.550415039063 -292.3904418945313 1034.868286132813 -292.3904418945313 Z"/></g><g class="b" transform="translate(-964.339 292.442)"><path class="d" d="M1099.655-283.438c-22.961-22.559-48.549,3.89-69.116,7.942-22.433,4.42-53.547-4.92-63.866,17.828-7.06,15.565,2.408,26.39,21.506,63.663,14.842,28.968,26.619,58.344,52.083,52.848,21.5-4.639,42.35-38.4,49.116-51.606C1098.353-210.278,1118.638-264.788,1099.655-283.438Z"/><path class="f" d="M 1079.026123046875 -292.4418029785156 C 1062.154907226563 -292.44384765625 1045.092163085938 -278.3630981445313 1030.539306640625 -275.4958801269531 C 1008.106201171875 -271.0758666992188 976.992431640625 -280.416259765625 966.6728515625 -257.6676635742188 C 959.612548828125 -242.102783203125 969.0809326171875 -231.2777404785156 988.1787109375 -194.00439453125 C 1001.800048828125 -167.4193420410156 1012.84326171875 -140.4880676269531 1034.249389648438 -140.4880676269531 C 1036.168579101563 -140.4880676269531 1038.166748046875 -140.7038269042969 1040.261840820313 -141.1559448242188 C 1061.757446289063 -145.7947387695313 1082.611938476563 -179.55517578125 1089.378295898438 -192.7618103027344 C 1098.352661132813 -210.2780914306641 1118.637817382813 -264.7884216308594 1099.6552734375 -283.4382934570313 C 1092.94091796875 -290.0349426269531 1085.998291015625 -292.4409790039063 1079.026123046875 -292.4418029785156 M 1079.0224609375 -295.4418334960938 L 1079.0224609375 -292.4418334960938 L 1079.023681640625 -295.4418334960938 C 1083.0791015625 -295.4413146972656 1086.9677734375 -294.6821899414063 1090.58447265625 -293.1855163574219 C 1094.51708984375 -291.5581665039063 1098.276245117188 -288.9987182617188 1101.7578125 -285.5783081054688 C 1106.6962890625 -280.7262268066406 1109.573974609375 -273.4998168945313 1110.310546875 -264.0997924804688 C 1110.907958984375 -256.4775695800781 1110.109130859375 -247.3790740966797 1107.936279296875 -237.0569763183594 C 1106.200927734375 -228.8126831054688 1103.545776367188 -219.6880645751953 1100.258056640625 -210.6695709228516 C 1097.646728515625 -203.5061798095703 1094.654296875 -196.4804534912109 1092.04833984375 -191.3938751220703 C 1090.85791015625 -189.0705413818359 1088.28173828125 -184.262939453125 1084.403076171875 -178.1683959960938 C 1080.620483398438 -172.2251892089844 1076.670776367188 -166.73291015625 1072.663696289063 -161.8441772460938 C 1067.702880859375 -155.791748046875 1062.74072265625 -150.7863159179688 1057.9150390625 -146.9668579101563 C 1052.071044921875 -142.3412475585938 1046.344482421875 -139.3995361328125 1040.894653320313 -138.2234497070313 C 1038.633544921875 -137.7354736328125 1036.397827148438 -137.4880676269531 1034.249389648438 -137.4880676269531 C 1031.622192382813 -137.4880676269531 1029.03955078125 -137.8580932617188 1026.572998046875 -138.5878601074219 C 1024.224609375 -139.2826843261719 1021.911987304688 -140.3246765136719 1019.699340820313 -141.6848754882813 C 1015.707641601563 -144.1388549804688 1011.94140625 -147.6476135253906 1008.185424804688 -152.4117736816406 C 1001.3994140625 -161.019287109375 995.6934814453125 -172.3932800292969 989.6524658203125 -184.4350891113281 C 988.3045654296875 -187.1218414306641 986.9107666015625 -189.9000701904297 985.5087890625 -192.6363983154297 C 981.8475341796875 -199.7821502685547 978.5447998046875 -205.9459533691406 975.6309814453125 -211.3841857910156 C 969.4906005859375 -222.8440704345703 965.0540771484375 -231.1240386962891 962.88330078125 -238.1963958740234 C 961.7152099609375 -242.0018463134766 961.2181396484375 -245.4364776611328 961.3638916015625 -248.6966247558594 C 961.51513671875 -252.0776824951172 962.35791015625 -255.4175109863281 963.9407958984375 -258.9069519042969 C 967.5711669921875 -266.909912109375 973.8321533203125 -272.048583984375 983.081298828125 -274.61669921875 C 990.899658203125 -276.7875366210938 999.9796142578125 -276.8930053710938 1008.760620117188 -276.9949340820313 C 1016.005737304688 -277.0791015625 1023.49755859375 -277.1661376953125 1029.959350585938 -278.4392700195313 C 1035.646728515625 -279.559814453125 1041.911743164063 -282.588623046875 1048.544677734375 -285.7952880859375 C 1053.308349609375 -288.0982360839844 1058.234130859375 -290.4796142578125 1063.26416015625 -292.2991943359375 C 1069.110107421875 -294.4138488769531 1074.2646484375 -295.4418334960938 1079.0224609375 -295.4418334960938 Z"/></g></g><g transform="translate(3.021 -29.341)"><g class="c" transform="translate(31.435 32.678)"><path class="d" d="M115.05,0C178.591,0,230.1,50.606,230.1,113.032s-51.51,113.032-115.05,113.032S0,175.458,0,113.032,51.51,0,115.05,0Z"/><path class="g" d="M 115.0502090454102 2.000015258789063 C 107.3762741088867 2.000015258789063 99.70780944824219 2.759445190429688 92.25776672363281 4.2572021484375 C 84.99842834472656 5.716598510742188 77.85804748535156 7.894195556640625 71.03492736816406 10.72950744628906 C 64.33583068847656 13.51325988769531 57.87455749511719 16.95881652832031 51.83055114746094 20.97041320800781 C 45.84414672851563 24.94381713867188 40.21482849121094 29.50691223144531 35.09906005859375 34.53291320800781 C 29.98390197753906 39.558349609375 25.34011840820313 45.087890625 21.29673767089844 50.96788024902344 C 17.21536254882813 56.90310668945313 13.7100830078125 63.24772644042969 10.87820434570313 69.82557678222656 C 7.994430541992188 76.52397155761719 5.779647827148438 83.53359985351563 4.295394897460938 90.65975952148438 C 2.77227783203125 97.97244262695313 1.999984741210938 105.4994812011719 1.999984741210938 113.0317916870117 C 1.999984741210938 120.5641021728516 2.77227783203125 128.0911254882813 4.295394897460938 135.4038238525391 C 5.779647827148438 142.5299682617188 7.994430541992188 149.5396118164063 10.87820434570313 156.2380065917969 C 13.7100830078125 162.8158569335938 17.21536254882813 169.1604766845703 21.29673767089844 175.095703125 C 25.34011840820313 180.9756927490234 29.98390197753906 186.5052337646484 35.09906005859375 191.5306701660156 C 40.21482849121094 196.5566711425781 45.84414672851563 201.1197662353516 51.83055114746094 205.0931701660156 C 57.87455749511719 209.1047668457031 64.33583068847656 212.5503234863281 71.03492736816406 215.3340759277344 C 77.85804748535156 218.1693878173828 84.99842834472656 220.3469848632813 92.25776672363281 221.8063812255859 C 99.70780944824219 223.3041381835938 107.3762741088867 224.0635681152344 115.0502090454102 224.0635681152344 C 122.7241439819336 224.0635681152344 130.3926086425781 223.3041381835938 137.8426513671875 221.8063812255859 C 145.1019897460938 220.3469848632813 152.2423706054688 218.1693878173828 159.0654907226563 215.3340759277344 C 165.7645874023438 212.5503234863281 172.2258605957031 209.1047668457031 178.2698669433594 205.0931701660156 C 184.2562713623047 201.1197662353516 189.8855895996094 196.5566711425781 195.0013732910156 191.5306701660156 C 200.1165161132813 186.5052337646484 204.7602996826172 180.9756927490234 208.8036804199219 175.095703125 C 212.8850555419922 169.1604766845703 216.3903350830078 162.8158569335938 219.2222137451172 156.2380065917969 C 222.1059875488281 149.5396118164063 224.3207702636719 142.5299682617188 225.8050231933594 135.4038238525391 C 227.3281402587891 128.0911254882813 228.1004333496094 120.5641021728516 228.1004333496094 113.0317916870117 C 228.1004333496094 105.4994812011719 227.3281402587891 97.97244262695313 225.8050231933594 90.65975952148438 C 224.3207702636719 83.53359985351563 222.1059875488281 76.52397155761719 219.2222137451172 69.82557678222656 C 216.3903350830078 63.24772644042969 212.8850555419922 56.90310668945313 208.8036804199219 50.96788024902344 C 204.7602996826172 45.087890625 200.1165161132813 39.558349609375 195.0013732910156 34.53291320800781 C 189.8855895996094 29.50691223144531 184.2562713623047 24.94381713867188 178.2698669433594 20.97041320800781 C 172.2258605957031 16.95881652832031 165.7645874023438 13.51325988769531 159.0654907226563 10.72950744628906 C 152.2423706054688 7.894195556640625 145.1019897460938 5.716598510742188 137.8426513671875 4.2572021484375 C 130.3926086425781 2.759445190429688 122.7241439819336 2.000015258789063 115.0502090454102 2.000015258789063 M 115.0502090454102 1.52587890625e-05 C 178.5906829833984 1.52587890625e-05 230.1004333496094 50.6060791015625 230.1004333496094 113.0317916870117 C 230.1004333496094 175.45751953125 178.5906829833984 226.0635681152344 115.0502090454102 226.0635681152344 C 51.50973510742188 226.0635681152344 -1.52587890625e-05 175.45751953125 -1.52587890625e-05 113.0317916870117 C -1.52587890625e-05 50.6060791015625 51.50973510742188 1.52587890625e-05 115.0502090454102 1.52587890625e-05 Z"/></g><g class="b" transform="translate(-960.743 294.156)"><path class="d" d="M1199.331-216.19C1176.14-247.8,1133.738-294.131,1086.309-289s-70.283,58.314-82.927,91.842c-17.743,47.051-39.145,107.594-18.1,137.668s89.26,28.162,132.529,23.593c48.5-5.122,107.278-15.3,123.4-46.368C1258.184-114.948,1246.941-151.3,1199.331-216.19Z"/><path class="g" d="M 1093.607055664063 -289.3904724121094 C 1091.186767578125 -289.3907470703125 1088.758422851563 -289.2629089355469 1086.309448242188 -288.9978332519531 C 1038.882934570313 -283.864501953125 1016.0263671875 -230.6838836669922 1003.382690429688 -197.1557159423828 C 985.6397705078125 -150.1050109863281 964.237548828125 -89.56129455566406 985.285400390625 -59.48757934570313 C 999.7147216796875 -38.8699951171875 1036.322631835938 -33.28497314453125 1071.85498046875 -33.28497314453125 C 1088.148803710938 -33.28497314453125 1104.210693359375 -34.4583740234375 1117.814208984375 -35.89501953125 C 1166.311279296875 -41.01751708984375 1225.091918945313 -51.19805908203125 1241.216430664063 -82.263427734375 C 1258.183959960938 -114.9481811523438 1246.940795898438 -151.2997589111328 1199.331420898438 -216.1898803710938 C 1177.337158203125 -246.1694641113281 1138.058715820313 -289.3857421875 1093.607055664063 -289.3904724121094 M 1093.598876953125 -291.3904724121094 L 1093.607299804688 -291.3904724121094 C 1113.782104492188 -291.3883361816406 1134.822143554688 -282.7079162597656 1156.142944335938 -265.5903015136719 C 1164.51171875 -258.8713073730469 1172.965087890625 -250.804931640625 1181.268188476563 -241.6152648925781 C 1187.940551757813 -234.2303771972656 1194.560424804688 -226.0740966796875 1200.943969726563 -217.3729248046875 C 1213.149658203125 -200.7369689941406 1222.680786132813 -186.3794708251953 1230.08203125 -173.4799652099609 C 1237.704833984375 -160.1941375732422 1243.042236328125 -148.5052642822266 1246.3994140625 -137.7453460693359 C 1253.02587890625 -116.5077209472656 1251.94287109375 -98.58512878417969 1242.991455078125 -81.3419189453125 C 1240.940185546875 -77.3900146484375 1238.147705078125 -73.62492370605469 1234.69140625 -70.15130615234375 C 1231.442260742188 -66.88583374023438 1227.51611328125 -63.78775024414063 1223.021850585938 -60.94308471679688 C 1218.8125 -58.27862548828125 1213.983154296875 -55.7596435546875 1208.667846679688 -53.45596313476563 C 1203.711669921875 -51.30795288085938 1198.187255859375 -49.28408813476563 1192.247924804688 -47.4405517578125 C 1167.321166992188 -39.703369140625 1137.949096679688 -36.0106201171875 1118.024291992188 -33.90609741210938 C 1101.55517578125 -32.16683959960938 1086.021728515625 -31.28497314453125 1071.85498046875 -31.28497314453125 C 1051.520751953125 -31.28497314453125 1034.126953125 -33.11297607421875 1020.15673828125 -36.7181396484375 C 1011.944946289063 -38.83731079101563 1004.797607421875 -41.60931396484375 998.9134521484375 -44.95706176757813 C 992.4083251953125 -48.65814208984375 987.2718505859375 -53.16104125976563 983.6468505859375 -58.34085083007813 C 980.9737548828125 -62.16012573242188 978.8643798828125 -66.59774780273438 977.3773193359375 -71.53038024902344 C 975.9854736328125 -76.14743041992188 975.0989990234375 -81.332763671875 974.742431640625 -86.94221496582031 C 974.4105224609375 -92.16546630859375 974.5281982421875 -97.91801452636719 975.092041015625 -104.0401306152344 C 975.61328125 -109.6993408203125 976.533203125 -115.8583831787109 977.8260498046875 -122.3461303710938 C 982.781005859375 -147.2103424072266 992.64990234375 -174.36279296875 1001.511352539063 -197.8614196777344 C 1004.375244140625 -205.4558410644531 1008.291870117188 -215.4934692382813 1013.19921875 -225.7893829345703 C 1018.59033203125 -237.1000518798828 1024.14697265625 -246.6233520507813 1030.186645507813 -254.9034729003906 C 1033.68603515625 -259.7008361816406 1037.369384765625 -264.0812072753906 1041.134521484375 -267.9229125976563 C 1045.235473632813 -272.1071166992188 1049.558715820313 -275.7807006835938 1053.984497070313 -278.8416748046875 C 1058.75341796875 -282.1400756835938 1063.7802734375 -284.8236083984375 1068.925415039063 -286.8176879882813 C 1074.413330078125 -288.9446411132813 1080.189819335938 -290.3471374511719 1086.09423828125 -290.9862060546875 C 1088.57275390625 -291.2544555664063 1091.09765625 -291.3904724121094 1093.598876953125 -291.3904724121094 Z"/></g><g class="b" transform="translate(-964.339 292.442)"><path class="d" d="M1235.945-274.37c-46.088-45.28-97.448,7.808-138.729,15.942-45.027,8.872-107.478-9.876-128.192,35.785-14.171,31.242,4.834,52.97,43.166,127.784,29.792,58.145,53.429,117.107,104.541,106.077,43.145-9.311,85-77.074,98.586-103.583C1233.331-127.524,1274.046-236.936,1235.945-274.37Z"/><path class="g" d="M 1194.537963867188 -292.4418334960938 C 1160.674194335938 -292.4458923339844 1126.425659179688 -264.1831970214844 1097.215698242188 -258.4281921386719 C 1052.1884765625 -249.5561828613281 989.7373046875 -268.3043518066406 969.023681640625 -222.6435394287109 C 954.852294921875 -191.4018402099609 973.8572998046875 -169.6739501953125 1012.190185546875 -94.85929870605469 C 1039.531005859375 -41.49806213378906 1061.696411132813 12.55810546875 1104.662841796875 12.55810546875 C 1108.514892578125 12.55810546875 1112.525756835938 12.12503051757813 1116.73095703125 11.21749877929688 C 1159.876220703125 1.906646728515625 1201.73583984375 -65.85694885253906 1215.317260742188 -92.36518859863281 C 1233.33056640625 -127.5236968994141 1274.046020507813 -236.9363403320313 1235.944702148438 -274.3700561523438 C 1222.4677734375 -287.6107788085938 1208.53271484375 -292.4401550292969 1194.537963867188 -292.4418334960938 M 1194.530639648438 -294.4418334960938 L 1194.530639648438 -292.4418334960938 L 1194.532348632813 -294.4418334960938 L 1194.537841796875 -294.4418334960938 C 1198.245239257813 -294.44140625 1201.895874023438 -294.1058349609375 1205.388671875 -293.4444885253906 C 1209.078247070313 -292.745849609375 1212.7158203125 -291.6605529785156 1216.2001953125 -290.2185974121094 C 1219.843505859375 -288.7109375 1223.436157226563 -286.7653503417969 1226.878295898438 -284.435791015625 C 1230.450073242188 -282.0184936523438 1233.972045898438 -279.1118774414063 1237.346435546875 -275.7966918945313 C 1242.135009765625 -271.092041015625 1245.924072265625 -265.0868530273438 1248.6083984375 -257.9479370117188 C 1251.068359375 -251.4059906005859 1252.654541015625 -243.7658996582031 1253.32275390625 -235.2398376464844 C 1254.49169921875 -220.3232421875 1252.913208007813 -202.4451904296875 1248.631103515625 -182.1024475097656 C 1246.805908203125 -173.4313354492188 1244.48193359375 -164.3014373779297 1241.724243164063 -154.9663391113281 C 1239.2626953125 -146.6340484619141 1236.4541015625 -138.1287841796875 1233.376708984375 -129.6868438720703 C 1228.189453125 -115.4573974609375 1222.255859375 -101.5217895507813 1217.097290039063 -91.4532470703125 C 1214.739990234375 -86.85234069824219 1209.635986328125 -77.32789611816406 1201.93798828125 -65.23269653320313 C 1194.431640625 -53.4385986328125 1186.598876953125 -42.54579162597656 1178.657348632813 -32.85699462890625 C 1168.882080078125 -20.93099975585938 1159.128784179688 -11.08734130859375 1149.668334960938 -3.599334716796875 C 1144.284423828125 0.66204833984375 1138.922119140625 4.211273193359375 1133.730590820313 6.94970703125 C 1128.098754882813 9.92034912109375 1122.521118164063 12.01400756835938 1117.15283203125 13.17251586914063 C 1112.892333984375 14.0919189453125 1108.690063476563 14.55810546875 1104.662841796875 14.55810546875 C 1099.776123046875 14.55810546875 1094.975952148438 13.87100219726563 1090.395751953125 12.515869140625 C 1086.021362304688 11.22161865234375 1081.704223632813 9.27496337890625 1077.564453125 6.730072021484375 C 1069.962280273438 2.056610107421875 1062.746948242188 -4.679901123046875 1055.505981445313 -13.86434936523438 C 1042.138427734375 -30.8199462890625 1030.774536132813 -53.47193908691406 1018.743408203125 -77.45388793945313 C 1016.034057617188 -82.85464477539063 1013.232421875 -88.43928527832031 1010.410278320313 -93.94729614257813 C 1003.044311523438 -108.3232421875 996.406005859375 -120.712646484375 990.549072265625 -131.6435394287109 C 978.33154296875 -154.4452972412109 969.5042724609375 -170.9198913574219 965.26171875 -184.7411804199219 C 964.160400390625 -188.3292388916016 963.392578125 -191.6332397460938 962.9141845703125 -194.8419799804688 C 962.4178466796875 -198.1716918945313 962.244873046875 -201.31689453125 962.38525390625 -204.4573974609375 C 962.665283203125 -210.7222442626953 964.240966796875 -216.9412384033203 967.2022705078125 -223.4697418212891 C 969.0322265625 -227.5036010742188 971.254150390625 -231.196533203125 973.8062744140625 -234.446044921875 C 976.2467041015625 -237.5531921386719 979.0672607421875 -240.3541412353516 982.1895751953125 -242.7710418701172 C 987.9229736328125 -247.2090454101563 994.741455078125 -250.4857940673828 1003.03466796875 -252.7884826660156 C 1009.8662109375 -254.6853332519531 1017.852172851563 -255.9361419677734 1027.448974609375 -256.6124877929688 C 1035.946899414063 -257.2113342285156 1044.89501953125 -257.3152465820313 1053.548461914063 -257.4158020019531 C 1068.272216796875 -257.5867919921875 1083.497192382813 -257.7635803222656 1096.8291015625 -260.3904418945313 C 1108.751953125 -262.7395324707031 1121.553100585938 -268.9281921386719 1135.10595703125 -275.4802551269531 C 1144.575561523438 -280.0582885742188 1154.367553710938 -284.7921447753906 1164.2685546875 -288.3737487792969 C 1169.6484375 -290.3198547363281 1174.5654296875 -291.752685546875 1179.30029296875 -292.7540893554688 C 1184.670166015625 -293.8898010253906 1189.652099609375 -294.4418334960938 1194.530639648438 -294.4418334960938 Z"/></g></g></g></svg>