<svg width="64" height="71" viewBox="0 0 64 71" fill="none" xmlns="http://www.w3.org/2000/svg">
<path fill-rule="evenodd" clip-rule="evenodd" d="M28.9955 70.7855C39.6046 71.6896 46.6571 60.9288 53.0628 52.55C59.1569 44.5788 66.3093 35.4598 63.2826 25.9371C60.381 16.8081 48.9947 14.7191 39.9395 11.2613C32.1992 8.30568 24.1817 4.99108 16.4908 8.06936C8.26071 11.3635 1.64323 18.5373 0.192795 27.1701C-1.17864 35.3327 5.0591 41.914 9.63916 48.8495C15.2815 57.3935 18.686 69.9069 28.9955 70.7855Z" fill="#DDEDF9"/>
<path d="M20.6183 41.369C20.3818 41.7915 20.5941 42.925 20.5903 43.3882C20.5863 44.8703 20.5863 46.3522 20.5903 47.8339C20.5971 51.4823 20.2662 55.3038 20.9334 58.9023C21.0294 59.4184 21.1526 59.9383 21.4103 60.3955C22.135 61.6802 23.7566 61.7217 25.0594 61.7301L33.0696 61.7845C34.4299 61.7935 35.8248 62.0308 37.1699 61.7316C39.1347 61.294 39.502 59.8046 39.8027 57.9955C40.34 54.7733 40.0468 51.5027 40.0294 48.2563C40.0143 45.7716 40.0725 43.3051 40.0725 40.8174L20.6183 41.369Z" fill="#517AA4"/>
<path d="M19.695 44.3551C19.4517 44.2614 19.3565 43.9485 19.3384 43.2186L18.9265 22.2046C18.8661 19.1819 19.5719 15.7738 21.7784 13.5755C23.283 12.077 25.2893 11.1309 27.3765 10.7372C31.1481 10.0291 35.8431 11.0115 37.9062 14.499C40.344 18.6189 40.3561 24.282 40.5223 28.909C40.6578 32.6481 40.7661 36.3892 40.8473 40.1324C40.8745 41.2659 41.847 43.514 40.3183 44.105C39.8022 44.3037 39.283 44.1805 38.7699 44.2841C38.2334 44.3884 37.7633 44.6619 37.2631 44.8969C36.0147 45.478 34.7399 46.0138 33.4091 46.3652C31.5675 46.8496 29.5854 46.9697 27.774 46.3811C26.4349 45.9481 25.2493 45.1523 23.948 44.6302C22.9928 44.2463 21.9077 44.0098 20.8814 44.2221C20.3071 44.3415 19.9316 44.4488 19.695 44.3551Z" fill="#A7C0DC"/>
<path d="M30.6231 19.3215C30.5973 19.1641 30.5045 19.0195 30.3616 18.9138C30.2186 18.8081 30.0348 18.7482 29.8433 18.7449C29.1132 18.6971 29.085 19.2371 29.085 19.697V22.0522C29.0726 22.2291 29.1007 22.4062 29.1681 22.5744C29.2367 22.7056 29.3529 22.8158 29.5006 22.8897C29.6483 22.9635 29.8201 22.9974 29.9921 22.9865C30.1527 22.9798 30.3073 22.934 30.4369 22.855C30.5665 22.7761 30.6652 22.6673 30.7209 22.5421C30.7761 22.3676 30.7933 22.1862 30.7718 22.0067C30.7289 21.169 30.6869 20.3306 30.6459 19.4915C30.6438 19.4344 30.6362 19.3775 30.6231 19.3215Z" fill="#F2FFDD"/>
<path d="M27.7848 21.7419C27.847 21.5287 27.9324 21.322 28.0398 21.1251C28.0747 21.0718 28.0964 21.0119 28.1031 20.9498C28.1085 20.6549 27.6727 20.4645 27.4096 20.558C27.0028 20.7029 26.7505 21.3846 26.6465 21.7377C26.5065 22.2126 26.4972 22.7128 26.6194 23.1921C26.7409 23.6343 26.9654 24.0462 27.277 24.3985C27.5886 24.7508 27.9796 25.0348 28.4222 25.2304C29.3824 25.6517 30.6292 25.6517 31.5559 25.1461C33.0116 24.3507 33.7358 22.7185 33.093 21.2228C33.0097 21.0061 32.8746 20.8098 32.6979 20.649C32.6086 20.5695 32.501 20.5101 32.3833 20.4755C32.2656 20.4409 32.1409 20.4319 32.0189 20.4493C31.9038 20.4668 31.8005 20.5251 31.7304 20.6119C31.693 20.6703 31.6698 20.7357 31.6626 20.8035C31.6554 20.8712 31.6644 20.9396 31.6889 21.0037C31.7387 21.1316 31.8023 21.2544 31.8787 21.3703C32.1888 21.9054 32.3037 22.5567 32.0894 23.1314C31.8082 23.8898 30.9683 24.4063 30.1093 24.4375C29.3634 24.4644 28.6338 24.1527 28.1085 23.6681C27.5832 23.1836 27.604 22.3755 27.7848 21.7419Z" fill="#F2FFDD"/>
<path d="M49.4995 32.7074C49.2288 32.3535 48.8906 32.0538 48.5032 31.8248C47.8066 31.3677 47.1053 30.9222 46.3993 30.4882C45.7763 30.0831 45.1135 29.7393 44.4208 29.4616C44.1758 29.359 43.9107 29.3095 43.6441 29.3167C42.5424 29.4148 43.1501 30.5788 43.6305 31.0149C44.2781 31.5954 45.1835 31.9813 45.9157 32.4681C46.6598 33.0292 47.4891 33.4738 48.3739 33.786C48.8529 33.9219 49.5579 33.8842 49.6438 33.2901C49.6678 33.0853 49.6167 32.8789 49.4995 32.7074Z" fill="#99C632"/>
<path d="M52.4592 21.873C52.0393 21.7071 51.5895 21.6246 51.1363 21.6304C50.2998 21.5962 49.4634 21.5724 48.6271 21.5658C47.8769 21.535 47.1255 21.5788 46.3845 21.6967C46.1202 21.7304 45.8673 21.8225 45.645 21.9658C44.7585 22.6118 45.9062 23.2936 46.5481 23.4184C47.41 23.5836 48.391 23.4515 49.2736 23.4924C50.2092 23.5898 51.1547 23.5448 52.0761 23.3589C52.561 23.2325 53.1369 22.8398 52.8899 22.2887C52.802 22.1044 52.6492 21.9569 52.4592 21.873Z" fill="#99C632"/>
<path d="M48.5065 10.5351C48.0691 10.6479 47.6591 10.8445 47.3007 11.1135C46.6117 11.5757 45.9264 12.0482 45.2517 12.531C44.6336 12.9459 44.0599 13.4203 43.5393 13.9471C43.3505 14.1293 43.2062 14.3505 43.117 14.5944C42.8028 15.6313 44.1417 15.5045 44.7323 15.2257C45.5244 14.8562 46.2266 14.1834 46.9579 13.69C47.7662 13.224 48.4952 12.6385 49.1188 11.9544C49.4254 11.5699 49.6493 10.9165 49.1128 10.6221C48.9279 10.5235 48.7128 10.4926 48.5065 10.5351Z" fill="#99C632"/>
<path d="M29.0748 0.833558C28.9063 1.24296 28.8239 1.68115 28.8325 2.12212C28.8008 2.93686 28.782 3.75154 28.7762 4.56616C28.7515 5.2971 28.7999 6.02864 28.9207 6.75041C28.9587 7.007 29.0555 7.25195 29.2039 7.46708C29.8705 8.32699 30.5636 7.20898 30.6883 6.58367C30.8546 5.74071 30.7156 4.78522 30.7507 3.9256C30.8475 3.01378 30.7979 2.09289 30.6038 1.19599C30.4705 0.727167 30.064 0.162926 29.5017 0.407079C29.3126 0.496381 29.1616 0.64725 29.0748 0.833558Z" fill="#99C632"/>
<path d="M17.555 4.17494C17.6784 4.59956 17.8888 4.99546 18.1733 5.33882C18.6583 6.0028 19.1574 6.65982 19.6635 7.30645C20.1022 7.90017 20.6009 8.4495 21.1522 8.94618C21.3427 9.12593 21.5722 9.26173 21.8237 9.34355C22.8882 9.62869 22.737 8.32809 22.4438 7.75988C22.047 6.9954 21.3353 6.32554 20.8253 5.62025C20.3275 4.8451 19.71 4.14935 18.9945 3.5575C18.5928 3.26247 17.9292 3.05836 17.6233 3.5913C17.5306 3.77193 17.5064 3.97866 17.555 4.17494Z" fill="#99C632"/>
<path d="M9.88042 12.3004C10.1797 12.6269 10.5421 12.8927 10.9471 13.0825C11.6859 13.4704 12.4294 13.8467 13.1776 14.2115C13.8376 14.5594 14.5323 14.8407 15.251 15.0513C15.5033 15.1324 15.7713 15.1559 16.0344 15.1202C17.1215 14.9186 16.3829 13.8174 15.878 13.4331C15.1669 12.9151 14.2336 12.6156 13.4592 12.2014C12.6617 11.7162 11.7923 11.3534 10.8815 11.1257C10.3886 11.0348 9.69087 11.1311 9.66528 11.7422C9.66692 11.9472 9.74315 12.145 9.88042 12.3004Z" fill="#99C632"/>
<path d="M7.64597 23.6697C8.078 23.8 8.53243 23.8448 8.98256 23.8017C9.81874 23.7703 10.6549 23.7263 11.4909 23.6696C12.2411 23.6391 12.9862 23.5351 13.715 23.3592C13.9729 23.3028 14.2145 23.1908 14.4223 23.0316C15.2554 22.3168 14.062 21.7285 13.4026 21.6555C12.5304 21.5594 11.5639 21.7708 10.6781 21.799C9.73784 21.7755 8.79963 21.8962 7.89784 22.1567C7.42727 22.321 6.87996 22.7584 7.1942 23.2886C7.29625 23.4617 7.45549 23.596 7.64597 23.6697Z" fill="#99C632"/>
<path d="M10.5869 33.7838C11.0379 33.7421 11.4758 33.6134 11.8752 33.4052C12.6355 33.0566 13.3887 32.7081 14.1348 32.3319C14.8148 32.0229 15.4603 31.6464 16.061 31.2083C16.278 31.0585 16.4576 30.8631 16.5865 30.6365C17.0711 29.6643 15.7277 29.5772 15.1012 29.7561C14.2553 29.9946 13.4499 30.554 12.6436 30.9166C11.7674 31.2556 10.9506 31.725 10.2224 32.3082C9.86956 32.6549 9.51787 33.2502 10.0051 33.6242C10.1742 33.7414 10.3798 33.7978 10.5869 33.7838Z" fill="#99C632"/>
<path d="M40.6415 3.16983C40.2729 3.42695 39.9611 3.75348 39.7244 4.13008C39.249 4.80185 38.7808 5.47703 38.3161 6.16256C37.8915 6.76547 37.5288 7.4076 37.2333 8.07967C37.1238 8.31613 37.0704 8.57356 37.0772 8.83283C37.1635 9.90936 38.3658 9.32751 38.8173 8.86295C39.4205 8.24584 39.8418 7.36376 40.3489 6.65388C40.9319 5.93559 41.3969 5.13354 41.7273 4.27637C41.874 3.80973 41.8426 3.12299 41.2327 3.036C41.0256 3.01112 40.8161 3.05854 40.6415 3.16983Z" fill="#99C632"/>
</svg>
