<svg width="30" height="30" viewBox="0 0 30 30" fill="none" xmlns="http://www.w3.org/2000/svg">
<g clip-path="url(#clip0_5669_111368)">
<circle cx="15" cy="15" r="15" fill="#DDEDF9"/>
<mask id="path-2-inside-1_5669_111368" fill="white">
<path d="M18.6623 18.4163C18.3362 19.138 17.8021 19.7473 17.1276 20.1673C16.4531 20.5872 15.6685 20.7989 14.8729 20.7756C14.0774 20.7523 13.3066 20.495 12.6582 20.0363C12.0097 19.5776 11.5127 18.938 11.2299 18.1985L12.5514 17.6993C12.7348 18.179 13.0572 18.5938 13.4779 18.8914C13.8985 19.189 14.3985 19.3559 14.9146 19.371C15.4306 19.3861 15.9396 19.2488 16.3772 18.9764C16.8147 18.7039 17.1612 18.3087 17.3727 17.8405L18.6623 18.4163Z"/>
</mask>
<path d="M18.6623 18.4163C18.3362 19.138 17.8021 19.7473 17.1276 20.1673C16.4531 20.5872 15.6685 20.7989 14.8729 20.7756C14.0774 20.7523 13.3066 20.495 12.6582 20.0363C12.0097 19.5776 11.5127 18.938 11.2299 18.1985L12.5514 17.6993C12.7348 18.179 13.0572 18.5938 13.4779 18.8914C13.8985 19.189 14.3985 19.3559 14.9146 19.371C15.4306 19.3861 15.9396 19.2488 16.3772 18.9764C16.8147 18.7039 17.1612 18.3087 17.3727 17.8405L18.6623 18.4163Z" stroke="#1F4C7C" stroke-width="2" mask="url(#path-2-inside-1_5669_111368)"/>
<line x1="18.423" y1="17.7529" x2="20" y2="17.7529" stroke="#1F4C7C" stroke-width="2" stroke-linecap="round"/>
<line x1="11.577" y1="17.791" x2="10" y2="17.791" stroke="#1F4C7C" stroke-width="2" stroke-linecap="round"/>
<path d="M16.674 8.13639C16.674 9.05121 15.9263 9.80306 14.9913 9.80306C14.0562 9.80306 13.3085 9.05121 13.3085 8.13639C13.3085 7.22158 14.0562 6.46973 14.9913 6.46973C15.9263 6.46973 16.674 7.22158 16.674 8.13639Z" stroke="#1F4C7C" stroke-width="2"/>
<ellipse cx="14.9912" cy="13.4524" rx="0.894249" ry="0.888888" fill="#1F4C7C"/>
<ellipse cx="16.3327" cy="15.3518" rx="0.894248" ry="0.888888" fill="#1F4C7C"/>
<ellipse cx="13.6499" cy="15.3518" rx="0.894249" ry="0.888888" fill="#1F4C7C"/>
<rect x="9.62579" y="3" width="10.731" height="24" rx="5.36549" stroke="#1F4C7C" stroke-width="2"/>
<path d="M27.3333 20L22 24V16L27.3333 20Z" fill="#1F4C7C"/>
</g>
<defs>
<clipPath id="clip0_5669_111368">
<rect width="30" height="30" fill="white"/>
</clipPath>
</defs>
</svg>
