<svg width="34" height="30" viewBox="0 0 34 30" fill="none" xmlns="http://www.w3.org/2000/svg">
<path fill-rule="evenodd" clip-rule="evenodd" d="M3.82271 30H30.1777C32.8727 30 34.5527 27.0775 33.2052 24.75L20.0277 1.9825C18.6802 -0.344998 15.3202 -0.344998 13.9727 1.9825L0.795212 24.75C-0.552288 27.0775 1.12771 30 3.82271 30ZM17.0002 17.75C16.0377 17.75 15.2502 16.9625 15.2502 16V12.5C15.2502 11.5375 16.0377 10.75 17.0002 10.75C17.9627 10.75 18.7502 11.5375 18.7502 12.5V16C18.7502 16.9625 17.9627 17.75 17.0002 17.75ZM15.2502 24.75H18.7502V21.25H15.2502V24.75Z" fill="#F1B441"/>
</svg>
