<svg xmlns="http://www.w3.org/2000/svg" width="16.625" height="21" viewBox="0 0 16.625 21"><defs><style>.a{opacity:0.57;}.b{font-size:14px;font-family:Roboto-Black, Roboto;font-weight:800;}.c{fill:none;stroke-linecap:round;stroke-linejoin:round;}.d,.e{stroke:none;}.e{fill:#000;}</style></defs><g class="a" transform="translate(-307 -149)"><text class="b" transform="translate(312 164)"><tspan x="0" y="0">?</tspan></text><g class="c" transform="translate(5425 4226)"><path class="d" d="M-5112.217-4058.814H-5114a4,4,0,0,1-4-4V-4071a4,4,0,0,1,4-4h8.625a4,4,0,0,1,4,4v8.186a4,4,0,0,1-4,4h-1.06l-2.891,2.814Z"/><path class="e" d="M -5109.326171875 -4058.791259765625 L -5107.83056640625 -4060.247314453125 C -5107.45751953125 -4060.61083984375 -5106.95654296875 -4060.814208984375 -5106.435546875 -4060.814208984375 L -5105.37548828125 -4060.814208984375 C -5104.2724609375 -4060.814208984375 -5103.37548828125 -4061.711181640625 -5103.37548828125 -4062.81396484375 L -5103.37548828125 -4070.999755859375 C -5103.37548828125 -4072.1025390625 -5104.2724609375 -4072.99951171875 -5105.37548828125 -4072.99951171875 L -5114.00048828125 -4072.99951171875 C -5115.10302734375 -4072.99951171875 -5116 -4072.1025390625 -5116 -4070.999755859375 L -5116 -4062.81396484375 C -5116 -4061.711181640625 -5115.10302734375 -4060.814208984375 -5114.00048828125 -4060.814208984375 L -5112.216796875 -4060.814208984375 C -5111.69580078125 -4060.814208984375 -5111.1953125 -4060.61083984375 -5110.82177734375 -4060.247314453125 L -5109.326171875 -4058.791259765625 M -5109.326171875 -4056 L -5112.216796875 -4058.814208984375 L -5114.00048828125 -4058.814208984375 C -5116.20849609375 -4058.814208984375 -5118 -4060.604736328125 -5118 -4062.81396484375 L -5118 -4070.999755859375 C -5118 -4073.208984375 -5116.20849609375 -4074.99951171875 -5114.00048828125 -4074.99951171875 L -5105.37548828125 -4074.99951171875 C -5103.16748046875 -4074.99951171875 -5101.37548828125 -4073.208984375 -5101.37548828125 -4070.999755859375 L -5101.37548828125 -4062.81396484375 C -5101.37548828125 -4060.604736328125 -5103.16748046875 -4058.814208984375 -5105.37548828125 -4058.814208984375 L -5106.435546875 -4058.814208984375 L -5109.326171875 -4056 Z"/></g></g></svg>