<svg width="30" height="30" viewBox="0 0 30 30" fill="none" xmlns="http://www.w3.org/2000/svg">
<g clip-path="url(#clip0_287_37029)">
<circle cx="15" cy="15" r="15" fill="#DDEDF9"/>
<path d="M22 13L20 15L22 17L24 15L22 13ZM17.88 19.29L16 21.17V17.41L17.88 19.29ZM16 8.83L17.88 10.71L16 12.58V8.83ZM20.71 10.71L15 5H14V12.58L9.41 8L8 9.41L13.59 15L8 20.58L9.41 22L14 17.41V25H15L20.71 19.29L16.41 15L20.71 10.71ZM10 15L8 13L6 15L8 17L10 15Z" fill="#1F4C7C"/>
</g>
<defs>
<clipPath id="clip0_287_37029">
<rect width="30" height="30" fill="white"/>
</clipPath>
</defs>
</svg>
