<svg width="36" height="36" viewBox="0 0 36 36" fill="none" xmlns="http://www.w3.org/2000/svg">
<path d="M18 36C21.5601 36 25.0402 34.9443 28.0003 32.9665C30.9603 30.9886 33.2674 28.1774 34.6298 24.8883C35.9922 21.5992 36.3487 17.98 35.6541 14.4884C34.9596 10.9967 33.2453 7.78943 30.7279 5.27209C28.2106 2.75474 25.0033 1.04041 21.5116 0.345873C18.02 -0.348661 14.4008 0.00779911 11.1117 1.37018C7.82263 2.73255 5.01141 5.03966 3.03355 7.99974C1.05568 10.9598 0 14.4399 0 18C0 22.7739 1.89642 27.3523 5.27208 30.7279C6.94353 32.3994 8.92783 33.7253 11.1117 34.6298C13.2956 35.5344 15.6362 36 18 36ZM18 32.4C17.466 32.4 16.944 32.2416 16.5 31.945C16.0559 31.6483 15.7099 31.2266 15.5055 30.7332C15.3012 30.2399 15.2477 29.697 15.3519 29.1733C15.4561 28.6495 15.7132 28.1684 16.0908 27.7908C16.4684 27.4132 16.9495 27.1561 17.4732 27.0519C17.997 26.9477 18.5399 27.0012 19.0332 27.2055C19.5266 27.4099 19.9483 27.756 20.245 28.2C20.5416 28.644 20.7 29.166 20.7 29.7C20.7 30.4161 20.4155 31.1028 19.9092 31.6092C19.4028 32.1155 18.7161 32.4 18 32.4ZM10.8 12.5892C10.7735 11.2063 11.1553 9.84628 11.8978 8.67928C12.6402 7.51228 13.7103 6.59014 14.9742 6.02821C16.0949 5.52767 17.3237 5.3174 18.5471 5.41681C19.7705 5.51622 20.9492 5.9221 21.9744 6.59701C22.9198 7.22291 23.704 8.06324 24.2631 9.04955C24.8223 10.0359 25.1406 11.1403 25.1922 12.2729C25.2438 13.4055 25.0271 14.5343 24.5599 15.5674C24.0927 16.6004 23.3882 17.5086 22.5036 18.2178C21.2631 19.1738 20.3708 20.5107 19.9638 22.023C19.8516 22.487 19.5597 22.8875 19.1522 23.1363C18.7448 23.385 18.2552 23.4618 17.7912 23.3496C17.3272 23.2374 16.9267 22.9455 16.6779 22.5381C16.4291 22.1306 16.3524 21.641 16.4646 21.177C17.0505 18.8907 18.3803 16.8644 20.2446 15.417C20.6877 15.0626 21.0407 14.6084 21.2749 14.0916C21.5091 13.5748 21.6179 13.01 21.5922 12.4432C21.5666 11.8763 21.4074 11.3236 21.1275 10.83C20.8476 10.3364 20.4551 9.91601 19.9818 9.60301C19.4516 9.25598 18.8413 9.05061 18.2092 9.00649C17.5771 8.96238 16.9442 9.08099 16.371 9.35101C15.7632 9.64195 15.2526 10.1028 14.9012 10.6778C14.5498 11.2528 14.3726 11.9174 14.391 12.591C14.36 13.0453 14.1579 13.471 13.8255 13.7823C13.4931 14.0935 13.0551 14.2672 12.5997 14.2684C12.1443 14.2695 11.7054 14.098 11.3715 13.7884C11.0375 13.4788 10.8333 13.0542 10.8 12.6V12.5892Z" fill="#517AA4"/>
</svg>
