<svg width="25" height="23" viewBox="0 0 25 23" fill="none" xmlns="http://www.w3.org/2000/svg">
<path d="M7.625 21.1008C7.15556 21.1008 6.775 21.4813 6.775 21.9508C6.775 22.4202 7.15556 22.8008 7.625 22.8008L17.625 22.8008C18.0944 22.8008 18.475 22.4202 18.475 21.9508C18.475 21.4813 18.0944 21.1008 17.625 21.1008L7.625 21.1008Z" fill="#517AA4"/>
<path d="M5.625 18.1008C5.15556 18.1008 4.775 18.4813 4.775 18.9508C4.775 19.4202 5.15556 19.8008 5.625 19.8008L19.625 19.8008C20.0944 19.8008 20.475 19.4202 20.475 18.9508C20.475 18.4813 20.0944 18.1008 19.625 18.1008L5.625 18.1008Z" fill="#517AA4"/>
<path d="M0.625 15.9508C0.625 15.3985 1.07272 14.9508 1.625 14.9508L6.96272 14.9508C6.74088 14.3248 6.62012 13.6513 6.62012 12.95C6.62012 9.64 9.31012 6.95 12.6201 6.95C15.9301 6.95 18.6201 9.64 18.6201 12.95C18.6201 13.6513 18.4994 14.3248 18.2775 14.9508L23.625 14.9508C24.1773 14.9508 24.625 15.3985 24.625 15.9508C24.625 16.5031 24.1773 16.9508 23.625 16.9508L1.625 16.9508C1.07272 16.9508 0.625 16.5031 0.625 15.9508Z" fill="#517AA4"/>
<path d="M21.6101 13.95L22.6301 13.95C23.1801 13.95 23.6201 13.51 23.6201 12.96V12.95C23.6201 12.4 23.1801 11.96 22.6301 11.96L21.6201 11.96C21.0601 11.95 20.6201 12.39 20.6201 12.94V12.95C20.6201 13.51 21.0601 13.95 21.6101 13.95Z" fill="#517AA4"/>
<path d="M6.29012 5.2L6.68012 5.59C7.07012 5.98 7.07012 6.6 6.67012 7C6.29012 7.38 5.66012 7.39 5.27012 7L4.88011 6.61C4.49012 6.22 4.49012 5.59 4.88011 5.2C5.27012 4.81 5.90012 4.81 6.29012 5.2Z" fill="#517AA4"/>
<path d="M4.62012 12.96V12.95C4.62012 12.4 4.18012 11.96 3.63012 11.96H2.62012C2.07012 11.96 1.63012 12.4 1.63012 12.95V12.96C1.63012 13.51 2.07012 13.95 2.62012 13.95H3.63012C4.18012 13.95 4.62012 13.51 4.62012 12.96Z" fill="#517AA4"/>
<path d="M12.6301 2L12.6201 2C12.0701 2 11.6301 2.44 11.6301 2.99V3.95C11.6301 4.5 12.0701 4.94 12.6201 4.94H12.6301C13.1801 4.94 13.6201 4.5 13.6201 3.95V2.99C13.6201 2.44 13.1801 2 12.6301 2Z" fill="#517AA4"/>
<path d="M18.9601 5.21C19.3501 4.82 19.9801 4.82 20.3701 5.21C20.7601 5.6 20.7601 6.22 20.3801 6.62L19.9901 7.01C19.8033 7.19725 19.5496 7.30248 19.2851 7.30248C19.0206 7.30248 18.767 7.19725 18.5801 7.01L18.5701 7C18.1901 6.62 18.1801 5.99 18.5701 5.6L18.9601 5.21Z" fill="#517AA4"/>
</svg>
