<svg width="125" height="145" viewBox="0 0 125 145" fill="none" xmlns="http://www.w3.org/2000/svg">
<path d="M99.5047 25.5028C102.775 27.681 105.095 30.9754 105.537 35.7959C105.961 40.399 104.377 45.612 107.149 49.3108C110.584 53.8956 118.228 52.7345 122.332 56.7304C124.534 58.8747 125.28 62.2094 124.845 65.2525C124.409 68.2955 122.931 71.0946 121.216 73.6452C119.368 76.3929 117.108 79.3012 117.435 82.5974C117.79 86.1705 121.085 88.7798 122.035 92.2429C123.314 96.9084 119.628 101.94 114.968 103.236C110.31 104.533 105.234 102.771 101.404 99.8184C95.9627 95.6225 91.8202 88.8348 85.0175 87.8718C77.7546 86.8437 70.8208 93.1674 63.6249 91.744C61.8438 91.3918 60.191 90.5774 58.5795 89.74C56.1072 88.4551 53.5891 87.0198 51.9821 84.7435C48.8856 80.3568 50.6263 73.3829 55.4206 70.9681C56.1585 70.5966 56.9854 70.2903 57.4648 69.6171C57.8874 69.0237 57.9552 68.2497 57.9195 67.5224C57.8195 65.5065 57.0074 63.5328 55.658 62.0324C54.4022 60.6347 52.7338 59.6699 51.4147 58.3308C48.3044 55.1741 47.8497 49.9189 49.8554 46.0559C52.3919 41.1712 58.4071 41.1263 61.5129 36.779C64.8615 32.0897 64.4811 26.9427 70.3781 24.1748C73.0145 22.9376 75.9341 22.4488 78.8253 22.1003C85.3869 21.3106 93.8617 21.7444 99.5038 25.501L99.5047 25.5028Z" fill="#1F4C7C"/>
<path d="M75.5891 73.5091C75.5891 73.5091 94.9357 74.6436 99.7528 80.8802C104.57 87.1176 112.801 98.4571 115.918 104.978C119.034 111.499 130.228 124.162 119.176 134.368C108.125 144.573 95.2226 122.789 95.2226 122.789L91.554 141.473L38.843 140.793L32.6086 129.642C32.6086 129.642 16.7399 140.982 8.80607 129.642C0.872183 118.301 3.70565 104.409 13.34 98.4562C22.9743 92.503 34.8756 76.6265 43.0927 74.6418C51.3099 72.6571 67.0777 71.6923 75.5891 73.5073V73.5091Z" fill="#99C632"/>
<path d="M32.6092 129.84C32.5542 129.84 32.4992 129.817 32.4607 129.772C32.3892 129.69 32.3974 129.566 32.4799 129.494C32.6101 129.38 45.5445 118.113 49.1745 113.642C52.5433 109.493 46.9846 100.253 46.3456 99.2239C44.6324 99.2698 23.7155 100.005 14.3232 108.526C14.2416 108.599 14.1179 108.592 14.0445 108.512C13.9712 108.431 13.9776 108.307 14.0583 108.234C23.9163 99.2909 46.2256 98.8305 46.4501 98.8268C46.5042 98.8231 46.5812 98.8598 46.6188 98.9176C46.8902 99.3395 53.2107 109.296 49.4807 113.891C45.8286 118.387 32.8686 129.677 32.7384 129.791C32.7017 129.824 32.655 129.84 32.6092 129.84Z" fill="#214263"/>
<path d="M54.3557 71.1847L52.1254 72.4219L65.058 95.7603L68.2095 98.818L67.2883 94.5231L54.3557 71.1847Z" fill="#214263"/>
<path d="M55.4699 68.7141C54.5093 66.9798 52.3239 66.3534 50.5904 67.3145C48.857 68.2766 48.23 70.4621 49.1916 72.1964C50.1523 73.9307 52.3376 74.5571 54.0711 73.596C55.8045 72.6339 56.4315 70.4484 55.4699 68.7141Z" fill="#F1B441"/>
<path d="M119.176 116.458C119.127 116.458 119.078 116.44 119.041 116.403C118.957 116.323 110.497 108.41 98.5814 114.509C98.4833 114.56 98.3651 114.52 98.3165 114.424C98.267 114.327 98.3055 114.208 98.4017 114.159C110.572 107.93 119.228 116.036 119.313 116.12C119.392 116.195 119.395 116.32 119.319 116.398C119.28 116.438 119.229 116.458 119.177 116.458H119.176Z" fill="#214263"/>
<path d="M47.2656 100.41C47.2656 100.41 51.122 90.1416 53.5778 89.197C56.0336 88.2523 67.7461 86.1732 67.9349 88.2523C68.1238 90.3315 61.8894 90.5204 61.8894 90.5204C61.8894 90.5204 64.7229 91.8438 64.1564 93.2608C63.5898 94.6787 63.1177 94.6787 63.1177 94.6787C63.1177 94.6787 64.9126 94.3009 64.9126 95.4344C64.9126 96.568 63.9684 97.5136 63.9684 97.5136C63.9684 97.5136 65.7633 98.1748 64.8182 99.4983C63.874 100.822 60.0954 101.388 59.1513 102.428C58.2071 103.467 56.129 106.491 54.995 106.68C53.862 106.869 51.3109 106.68 51.3109 106.68L47.2656 100.411V100.41Z" fill="#FFF2CC"/>
<path d="M90.2677 24.4373C82.1404 21.7171 73.112 25.5865 69.4554 33.3409C68.2536 35.8905 67.7421 38.5695 67.8265 41.1815C67.7568 47.5767 67.7467 52.7475 68.6671 56.892C69.6002 61.0934 69.0172 65.4874 66.8438 69.2019L64.6483 72.952C71.9625 81.309 77.5506 79.1179 77.5506 79.1179L81.6189 69.1578C92.0452 72.0367 98.219 53.1382 100.435 47.7115L100.418 47.7078C100.509 47.5079 100.6 47.3071 100.684 47.1016C104.393 38.021 99.7178 27.5996 90.2677 24.4364V24.4373Z" fill="#FFF2CC"/>
<path d="M82.492 39.9147C78.3724 42.0636 74.1025 44.0776 70.4936 46.9859C70.0957 47.3041 67.2008 49.7465 67.5244 50.2958C65.7571 47.2986 65.3042 43.719 65.109 40.244C64.7707 34.2221 67.9443 28.4514 72.7816 24.9838C77.5639 21.5555 83.4069 21.1465 88.9381 22.8991C94.869 24.7792 100.345 29.2668 101.896 35.4951C103.352 41.3409 101.179 47.0913 99.3764 52.5822C101.399 46.4191 95.1734 38.6592 91.2142 34.5715C91.3297 34.6907 85.5116 38.2795 85.2109 38.4492C84.318 38.9517 83.4096 39.4369 82.4929 39.9157L82.492 39.9147Z" fill="#1F4C7C"/>
<path d="M70.8372 47.5808C70.7904 46.9654 70.5053 46.3931 70.0626 45.963C69.1514 45.077 67.4244 43.8096 65.5607 44.5919C62.8272 45.7401 64.6285 52.4829 69.5327 51.5025C69.5327 51.5025 71.0856 50.8504 70.8381 47.5808H70.8372Z" fill="#FFF2CC"/>
<path d="M76.5302 102.479L103.898 95.057C105.341 94.6654 106.713 95.8843 106.494 97.3645L101.418 131.688C101.315 132.383 100.869 132.978 100.232 133.271L78.0326 143.486C75.7125 144.553 73.0064 144.351 70.8706 142.953L47.3274 127.54C46.7517 127.163 46.3997 126.525 46.3887 125.836L45.8378 91.7966C45.8121 90.2265 47.4723 89.1975 48.8665 89.9183L72.2557 102.022C73.5739 102.704 75.1001 102.866 76.532 102.479L76.5302 102.479Z" fill="#517AA4"/>
<path d="M78.1362 102.016L76.5293 102.451C75.0965 102.84 73.5712 102.677 72.253 101.995L70.9568 101.324V142.975C73.0798 144.323 75.7419 144.51 78.0308 143.458L78.1362 143.409V102.016Z" fill="#A7C0DC"/>
<path d="M104.657 119.489C104.657 119.489 100.632 113.307 98.6818 111.396C96.732 109.485 96.2618 106.185 94.8382 106.877C93.4155 107.57 95.4083 112.429 95.4083 112.429C95.4083 112.429 90.1072 110.775 88.5561 110.018C87.0042 109.262 83.8866 108.616 83.2449 109.708C82.6032 110.801 90.3107 113.912 90.3107 113.912C90.3107 113.912 83.5639 111.931 82.7563 112.813C81.9487 113.695 90.164 117.478 90.164 117.478C90.164 117.478 83.0707 115.013 82.3456 115.306C81.6205 115.598 81.9661 116.537 84.2661 118.021C86.566 119.504 89.2959 120.426 89.2959 120.426C89.2959 120.426 84.1817 119.067 83.5116 119.118C82.8415 119.17 81.9551 119.729 85.5934 121.566C89.2317 123.402 97.7449 126.087 102.544 125.702L104.657 119.489Z" fill="#FFF2CC"/>
<path d="M103.166 128.226C103.166 128.226 107.124 125.102 106.516 118.587C106.516 118.587 105.562 113.729 104.08 113.677C102.6 113.625 102.272 114.411 102.932 116.924C103.592 119.437 102.529 117.949 101.466 119.508C100.403 121.067 104.158 122.13 103.095 122.91C102.032 123.689 101.111 121.35 100.332 123.689C99.5527 126.028 101.536 125.036 100.898 126.666C100.26 128.296 99.2695 129.076 99.7654 129.784C100.261 130.493 102.599 129.572 103.165 128.225L103.166 128.226Z" fill="#7FAE14"/>
<path d="M33.3984 2.63875C30.1008 0.671412 26.1093 0.0775538 22.2855 0.428603C16.1183 0.994669 10.208 3.9976 6.11631 8.64315C2.02462 13.2887 -0.206017 19.5286 0.0149977 25.7136C0.164292 29.8867 1.43256 34.0744 3.96837 37.394C6.50345 40.7137 10.3595 43.0935 14.5207 43.4782C21.8339 44.1539 31.2915 38.7171 35.6861 33.0783C41.8401 25.1834 43.0477 8.39522 33.3991 2.63875H33.3984Z" fill="white"/>
<path d="M42.7896 30.0388C42.7612 30.2635 42.7475 30.501 42.8437 30.7056C42.929 30.8853 43.0894 31.0174 43.2526 31.1329C44.6358 32.1161 46.537 32.3206 48.0972 31.653C49.5657 31.0247 50.7254 29.5417 50.6584 27.945C50.4228 22.3119 43.2636 26.3372 42.7896 30.0388Z" fill="white"/>
<path d="M56.9892 32.619C57.0057 33.2739 56.7463 33.9012 56.4914 34.5047C56.3796 34.7706 56.2678 35.0357 56.155 35.3017C56.1193 35.3869 56.0789 35.4777 56.0029 35.5309C55.9213 35.5878 55.8149 35.5915 55.715 35.5887C53.4866 35.5309 51.0381 33.3683 52.668 31.1397C53.9339 29.4072 56.937 30.5509 56.9883 32.6199L56.9892 32.619Z" fill="white"/>
<path d="M25.3634 13.9566C26.8873 13.6129 28.4053 14.9308 28.7965 16.4554C29.1878 17.98 28.7269 19.593 28.1121 21.0403C26.5302 24.764 23.8872 28.0221 20.5807 30.3231C17.6004 27.8828 15.4055 24.6176 13.4016 21.3149C12.5402 19.8951 11.6729 18.2722 12.0409 16.6492C12.4693 14.7599 14.569 13.5895 16.4818 13.7745C18.4363 13.963 19.808 16.3939 21.308 16.5233C22.746 16.6469 23.9429 14.2769 25.3629 13.9566H25.3634Z" fill="#F1B441"/>
</svg>
