<svg width="25" height="23" viewBox="0 0 25 23" fill="none" xmlns="http://www.w3.org/2000/svg">
<path d="M7.5 21.1008C7.03056 21.1008 6.65 21.4813 6.65 21.9508C6.65 22.4202 7.03056 22.8008 7.5 22.8008L17.5 22.8008C17.9694 22.8008 18.35 22.4202 18.35 21.9508C18.35 21.4813 17.9694 21.1008 17.5 21.1008L7.5 21.1008Z" fill="#DDEDF9"/>
<path d="M5.5 18.1008C5.03056 18.1008 4.65 18.4813 4.65 18.9508C4.65 19.4202 5.03056 19.8008 5.5 19.8008L19.5 19.8008C19.9694 19.8008 20.35 19.4202 20.35 18.9508C20.35 18.4813 19.9694 18.1008 19.5 18.1008L5.5 18.1008Z" fill="#DDEDF9"/>
<path d="M0.5 15.9508C0.5 15.3985 0.947716 14.9508 1.5 14.9508L6.83772 14.9508C6.61588 14.3248 6.49512 13.6513 6.49512 12.95C6.49512 9.64 9.18512 6.95 12.4951 6.95C15.8051 6.95 18.4951 9.64 18.4951 12.95C18.4951 13.6513 18.3744 14.3248 18.1525 14.9508L23.5 14.9508C24.0523 14.9508 24.5 15.3985 24.5 15.9508C24.5 16.5031 24.0523 16.9508 23.5 16.9508L1.5 16.9508C0.947716 16.9508 0.5 16.5031 0.5 15.9508Z" fill="#DDEDF9"/>
<path d="M21.4851 13.95L22.5051 13.95C23.0551 13.95 23.4951 13.51 23.4951 12.96V12.95C23.4951 12.4 23.0551 11.96 22.5051 11.96L21.4951 11.96C20.9351 11.95 20.4951 12.39 20.4951 12.94V12.95C20.4951 13.51 20.9351 13.95 21.4851 13.95Z" fill="#DDEDF9"/>
<path d="M6.16512 5.2L6.55512 5.59C6.94512 5.98 6.94512 6.6 6.54512 7C6.16512 7.38 5.53512 7.39 5.14512 7L4.75511 6.61C4.36512 6.22 4.36512 5.59 4.75511 5.2C5.14512 4.81 5.77512 4.81 6.16512 5.2Z" fill="#DDEDF9"/>
<path d="M4.49512 12.96V12.95C4.49512 12.4 4.05512 11.96 3.50512 11.96H2.49512C1.94512 11.96 1.50512 12.4 1.50512 12.95V12.96C1.50512 13.51 1.94512 13.95 2.49512 13.95H3.50512C4.05512 13.95 4.49512 13.51 4.49512 12.96Z" fill="#DDEDF9"/>
<path d="M12.5051 2L12.4951 2C11.9451 2 11.5051 2.44 11.5051 2.99V3.95C11.5051 4.5 11.9451 4.94 12.4951 4.94H12.5051C13.0551 4.94 13.4951 4.5 13.4951 3.95V2.99C13.4951 2.44 13.0551 2 12.5051 2Z" fill="#DDEDF9"/>
<path d="M18.8351 5.21C19.2251 4.82 19.8551 4.82 20.2451 5.21C20.6351 5.6 20.6351 6.22 20.2551 6.62L19.8651 7.01C19.6783 7.19725 19.4246 7.30248 19.1601 7.30248C18.8956 7.30248 18.642 7.19725 18.4551 7.01L18.4451 7C18.0651 6.62 18.0551 5.99 18.4451 5.6L18.8351 5.21Z" fill="#DDEDF9"/>
</svg>
