<svg width="24" height="24" viewBox="0 0 24 24" fill="none" xmlns="http://www.w3.org/2000/svg">
<path d="M13.125 13.125C13.125 13.3475 13.059 13.565 12.9354 13.75C12.8118 13.935 12.6361 14.0792 12.4305 14.1644C12.225 14.2495 11.9988 14.2718 11.7805 14.2284C11.5623 14.185 11.3618 14.0778 11.2045 13.9205C11.0472 13.7632 10.94 13.5627 10.8966 13.3445C10.8532 13.1262 10.8755 12.9 10.9606 12.6945C11.0458 12.4889 11.19 12.3132 11.375 12.1896C11.56 12.066 11.7775 12 12 12C12.2984 12 12.5845 12.1185 12.7955 12.3295C13.0065 12.5405 13.125 12.8266 13.125 13.125ZM21 9V19.5C21 19.8978 20.842 20.2794 20.5607 20.5607C20.2794 20.842 19.8978 21 19.5 21H4.5C4.10218 21 3.72064 20.842 3.43934 20.5607C3.15804 20.2794 3 19.8978 3 19.5V9C3 8.60218 3.15804 8.22064 3.43934 7.93934C3.72064 7.65804 4.10218 7.5 4.5 7.5H7.875V4.875C7.875 3.78098 8.3096 2.73177 9.08318 1.95818C9.85677 1.1846 10.906 0.75 12 0.75C13.094 0.75 14.1432 1.1846 14.9168 1.95818C15.6904 2.73177 16.125 3.78098 16.125 4.875C16.125 5.07391 16.046 5.26468 15.9053 5.40533C15.7647 5.54598 15.5739 5.625 15.375 5.625C15.1761 5.625 14.9853 5.54598 14.8447 5.40533C14.704 5.26468 14.625 5.07391 14.625 4.875C14.625 4.17881 14.3484 3.51113 13.8562 3.01884C13.3639 2.52656 12.6962 2.25 12 2.25C11.3038 2.25 10.6361 2.52656 10.1438 3.01884C9.65156 3.51113 9.375 4.17881 9.375 4.875V7.5H19.5C19.8978 7.5 20.2794 7.65804 20.5607 7.93934C20.842 8.22064 21 8.60218 21 9ZM14.625 13.125C14.6256 12.638 14.4907 12.1605 14.2354 11.7458C13.9801 11.3311 13.6145 10.9956 13.1795 10.7768C12.7445 10.558 12.2571 10.4646 11.772 10.5068C11.2869 10.5491 10.8231 10.7255 10.4325 11.0163C10.0419 11.3071 9.73987 11.7008 9.5602 12.1534C9.38054 12.606 9.33031 13.0997 9.41514 13.5792C9.49996 14.0587 9.7165 14.5052 10.0405 14.8687C10.3646 15.2322 10.7833 15.4984 11.25 15.6375V17.25C11.25 17.4489 11.329 17.6397 11.4697 17.7803C11.6103 17.921 11.8011 18 12 18C12.1989 18 12.3897 17.921 12.5303 17.7803C12.671 17.6397 12.75 17.4489 12.75 17.25V15.6375C13.292 15.4775 13.7676 15.1462 14.1056 14.6933C14.4436 14.2404 14.6258 13.6901 14.625 13.125Z" fill="#517AA4"/>
</svg>
