<svg width="54" height="56" viewBox="0 0 54 56" fill="none" xmlns="http://www.w3.org/2000/svg">
<g clip-path="url(#clip0_12536_22761)">
<path d="M27.4559 47.3746C15.7542 47.3746 6.23801 38.2044 6.23801 26.9454C6.23801 15.6864 15.7687 6.53015 27.4704 6.53711C39.1721 6.54408 48.6883 15.7073 48.681 26.9663C48.6738 38.2253 39.1504 47.3815 27.4487 47.3746H27.4559ZM27.4776 7.99932C16.6154 7.99932 7.77218 16.4941 7.77218 26.9454C7.77218 37.3967 16.6009 45.9054 27.4631 45.9054C38.3254 45.9054 47.1686 37.4106 47.1686 26.9593C47.1686 16.508 38.3399 7.99932 27.4776 7.99932Z" fill="#A7C0DC"/>
<path d="M19.5607 48.4052C12.7148 48.4052 7.96033 46.7341 5.40579 43.4407C1.13615 37.933 3.86438 29.501 5.8617 23.3318C6.05709 22.726 6.24524 22.1412 6.41892 21.5981C6.77352 20.4561 7.09917 19.3142 7.41034 18.1862C9.54516 10.5758 11.5714 3.38309 22.4916 1.39866C34.8301 -0.850361 45.2798 14.3497 45.837 15.1643C53.0665 25.2327 55.1362 31.1512 53.4572 37C51.3586 44.3111 40.149 48.1476 20.1252 48.3983C19.937 48.3983 19.7489 48.3983 19.5679 48.3983L19.5607 48.4052ZM24.9737 3.13242C24.279 3.13242 23.5771 3.19509 22.8679 3.32042C13.1997 5.08204 11.4267 11.3904 9.37148 18.7015C9.05307 19.8504 8.72742 21.0062 8.36558 22.169C8.1919 22.7191 8.00375 23.3109 7.80112 23.9237C5.9413 29.682 3.38676 37.571 7.03404 42.2779C9.24122 45.1257 13.6483 46.5601 20.089 46.4487C43.7673 46.1562 50.2369 40.8714 51.4889 36.4847C52.9796 31.2765 50.9895 25.7967 44.1509 16.2645L44.1364 16.2436C44.0423 16.1043 35.1774 3.13938 24.9737 3.13242Z" fill="#A7C0DC"/>
<path d="M43.0882 50.0351V47.9479H43.7758C44.0594 47.9479 44.2738 48.0003 44.4189 48.105C44.564 48.2097 44.6366 48.3684 44.6366 48.581C44.6366 48.7174 44.6085 48.834 44.5525 48.9308C44.4964 49.026 44.4065 49.1014 44.2829 49.1569L44.7701 50.0351H44.2012L43.8228 49.245H43.6101V50.0351H43.0882ZM43.6101 48.8904H43.7461C43.8582 48.8904 43.9456 48.8681 44.0083 48.8237C44.0726 48.7777 44.1048 48.7039 44.1048 48.6024C44.1048 48.5088 44.0776 48.4421 44.0231 48.4025C43.9687 48.3628 43.878 48.343 43.7511 48.343H43.6101V48.8904ZM43.8327 50.8133C43.5524 50.8133 43.2976 50.7681 43.0684 50.6777C42.8408 50.5872 42.6454 50.4619 42.4822 50.3016C42.3189 50.1398 42.1928 49.951 42.1037 49.7352C42.0163 49.5179 41.9726 49.283 41.9726 49.0308C41.9726 48.7642 42.0205 48.5215 42.1161 48.3025C42.2134 48.082 42.3478 47.8924 42.5193 47.7337C42.6908 47.5751 42.8903 47.4529 43.1179 47.3672C43.3471 47.28 43.5936 47.2363 43.8574 47.2363C44.1295 47.2363 44.3793 47.2815 44.6069 47.372C44.8361 47.4624 45.0348 47.5886 45.203 47.7504C45.3712 47.9122 45.5015 48.1026 45.5938 48.3216C45.6861 48.5405 45.7323 48.7785 45.7323 49.0355C45.7323 49.2957 45.6845 49.5345 45.5889 49.7519C45.4949 49.9692 45.3621 50.1573 45.1906 50.3159C45.0191 50.4746 44.818 50.5975 44.5871 50.6848C44.3562 50.7705 44.1048 50.8133 43.8327 50.8133ZM43.8673 50.492C44.085 50.492 44.2837 50.4571 44.4634 50.3873C44.6448 50.3159 44.8015 50.2152 44.9334 50.0851C45.0653 49.955 45.1667 49.8011 45.2376 49.6234C45.3102 49.4457 45.3465 49.2497 45.3465 49.0355C45.3465 48.8134 45.3085 48.6119 45.2327 48.431C45.1585 48.2502 45.0538 48.0947 44.9185 47.9646C44.7833 47.8345 44.6242 47.7345 44.4412 47.6647C44.2598 47.5933 44.0619 47.5576 43.8475 47.5576C43.6233 47.5576 43.4196 47.5957 43.2366 47.6719C43.0535 47.7464 42.8961 47.8511 42.7642 47.986C42.6322 48.1193 42.5308 48.2763 42.4599 48.4572C42.389 48.6365 42.3536 48.8309 42.3536 49.0403C42.3536 49.2592 42.3915 49.4584 42.4673 49.6376C42.5448 49.8153 42.652 49.9685 42.7889 50.097C42.9274 50.2239 43.0882 50.3215 43.2712 50.3897C43.4542 50.4579 43.653 50.492 43.8673 50.492Z" fill="#A7C0DC"/>
<path d="M25.3139 55.5004C16.3404 55.5004 8.38006 36.7562 8.00375 35.865C6.83865 33.226 5.54329 30.8865 4.28411 28.6235C1.13616 22.9488 -1.57759 18.0538 1.07103 12.9848C5.6446 5.91053 11.9477 6.41186 17.5055 6.85748C20.6969 7.10815 23.7073 7.35185 25.8638 6.03586C35.9879 -0.182015 43.6588 -1.16379 48.6593 3.10448C54.8105 8.35451 54.7888 19.4464 48.6014 32.7665C41.6904 47.6323 33.6433 55.4934 25.3211 55.5004H25.3139ZM13.2793 8.09688C9.28464 8.09688 5.42026 9.03687 2.40257 13.702C0.137497 18.0329 2.56178 22.3987 5.63013 27.9203C6.84589 30.1066 8.22085 32.5854 9.40767 35.287V35.301C9.49451 35.489 17.3318 54.0173 25.3139 54.0242C32.992 54.0242 40.5543 46.4555 47.2048 32.1607C53.1099 19.4534 53.2691 9.00206 47.6462 4.19765C43.2174 0.416795 36.1616 1.45427 26.6816 7.2683C24.0981 8.85584 20.8344 8.59125 17.3825 8.31969C16.0147 8.20829 14.6398 8.10384 13.2793 8.09688Z" fill="#A7C0DC"/>
<path d="M37.8116 20.5468C37.9853 20.2265 38.101 19.934 38.101 19.572C38.101 18.618 37.3846 17.9287 36.3932 17.9287C35.6478 17.9287 35.0833 18.2769 34.7143 18.9662L27.398 33.0939L20.089 19.0219C19.785 18.4509 19.3581 17.9287 18.3811 17.9287C17.3825 17.9287 16.6299 18.632 16.6299 19.572C16.6299 19.8505 16.7095 20.136 16.8759 20.505L25.5599 36.9792C25.7263 37.2856 26.175 38.1142 27.3112 38.1142C28.1144 38.1142 28.7513 37.7173 29.1565 36.9653L37.8116 20.5537V20.5468Z" fill="#A7C0DC"/>
</g>
<defs>
<clipPath id="clip0_12536_22761">
<rect width="54" height="55" fill="white" transform="translate(0 0.5)"/>
</clipPath>
</defs>
</svg>
