<svg width="64" height="67" viewBox="0 0 64 67" fill="none" xmlns="http://www.w3.org/2000/svg">
<path fill-rule="evenodd" clip-rule="evenodd" d="M28.9955 0.0534008C39.6046 -0.850684 46.6571 9.91008 53.0628 18.2889C59.1569 26.26 66.3093 35.3791 63.2826 44.9018C60.381 54.0308 48.9947 56.1197 39.9395 59.5775C32.1992 62.5332 24.1817 65.8478 16.4908 62.7695C8.26071 59.4754 1.64323 52.3016 0.192795 43.6688C-1.17864 35.5062 5.0591 28.9248 9.63916 21.9893C15.2815 13.4453 18.686 0.93195 28.9955 0.0534008Z" fill="#DDEDF9"/>
<path d="M35.666 62.0177L35.6661 62.0177C38.4136 61.8264 40.8326 60.1061 42.8471 58.1295L42.8472 58.1294C44.8856 56.1301 46.6669 53.7301 47.0496 50.9533C47.4154 48.2882 46.6298 45.7067 45.3814 43.2421C44.3987 41.3018 43.1412 39.4554 41.9512 37.708C41.6269 37.2319 41.3077 36.7631 41.0003 36.3017C41.0003 36.3017 41.0003 36.3017 41.0003 36.3017L41.2083 36.1631C39.9762 34.3146 38.805 32.4225 37.6337 30.5301C35.155 26.5257 32.6757 22.5203 29.6175 18.9251L35.666 62.0177ZM35.666 62.0177C32.7315 62.2233 29.7908 60.666 27.6597 58.6405C26.5178 57.5536 25.5388 56.313 24.6305 55.004C23.9415 54.0078 23.2937 52.9764 22.6475 51.9447L22.6474 51.9447C21.7301 50.481 20.803 49.0214 19.8759 47.5616C16.7615 42.6582 13.6459 37.753 10.8943 32.6859L10.6746 32.8052L10.8943 32.6859C10.1307 31.28 9.39678 29.8698 9.03234 28.355C8.61368 26.5933 8.94222 25.052 9.60026 23.3808L9.60042 23.3804L10.493 21.1016L10.493 21.1015L10.4967 21.0922C10.6318 20.7478 10.7893 20.3464 10.7954 19.9159L10.7956 19.9159L10.7953 19.905C10.7864 19.602 10.7381 19.3012 10.6516 19.0102C10.5724 18.6968 10.4664 18.3901 10.3589 18.0926C10.3351 18.0266 10.3112 17.9612 10.2875 17.8963C10.2026 17.6637 10.1198 17.4369 10.0472 17.208C9.86222 16.6249 9.75663 16.0669 9.87167 15.491C10.1106 14.2952 11.0056 13.1438 12.0218 12.4683L12.022 12.4681C14.0183 11.1384 16.3547 11.4573 18.1538 13.0399C18.3506 13.2131 18.5404 13.4059 18.7375 13.6077L18.7697 13.6407C18.9548 13.8303 19.1469 14.027 19.3487 14.2104C19.7765 14.5991 20.2695 14.948 20.9 15.0788C21.2356 15.1485 21.569 15.1435 21.8849 15.121C22.0203 15.1114 22.1464 15.0993 22.2691 15.0875C22.4479 15.0704 22.6194 15.0539 22.8018 15.0468C25.342 14.9506 27.5376 16.8865 29.2929 18.9301C29.293 18.9302 29.2931 18.9303 29.2932 18.9304L29.4271 19.0871C29.4272 19.0872 29.4273 19.0873 29.4273 19.0874L35.666 62.0177Z" fill="#A7C0DC" stroke="#517AA4" stroke-width="0.5"/>
<path d="M11.6822 19.0679C11.7048 19.068 11.7276 19.0661 11.7504 19.0623C11.9901 19.0205 12.2286 18.7939 12.4269 18.6598L13.2628 18.0921L14.9344 16.9579L18.2769 14.6888C18.4658 14.555 18.3459 14.4468 18.2502 14.3321C17.7501 13.7365 17.1951 13.1585 16.4983 12.7706C14.8525 11.8543 12.6105 12.5922 11.3014 14.0801C10.635 14.8362 10.4418 15.78 10.5712 16.6702C10.6406 17.1185 10.7696 17.5502 10.9552 17.9553C11.0454 18.1572 11.1461 18.3537 11.2533 18.5457C11.3357 18.689 11.4307 18.9963 11.5889 19.055C11.6186 19.0641 11.6501 19.0685 11.6822 19.0679Z" fill="#F2FFDD"/>
<circle cx="31.2583" cy="57.2656" r="0.634614" transform="rotate(-120.637 31.2583 57.2656)" fill="#F9FCFF"/>
<circle cx="36.2733" cy="55.7702" r="0.634614" transform="rotate(-120.637 36.2733 55.7702)" fill="#F9FCFF"/>
<circle cx="31.5022" cy="52.6948" r="0.634614" transform="rotate(-120.637 31.5022 52.6948)" fill="#F9FCFF"/>
<circle cx="38.2558" cy="51.6452" r="0.634614" transform="rotate(-120.637 38.2558 51.6452)" fill="#F9FCFF"/>
<circle cx="41.3307" cy="46.8735" r="0.634614" transform="rotate(-120.637 41.3307 46.8735)" fill="#F9FCFF"/>
<circle cx="35.0222" cy="46.184" r="0.634614" transform="rotate(-120.637 35.0222 46.184)" fill="#F9FCFF"/>
<circle cx="24.9919" cy="49.1748" r="0.634614" transform="rotate(-120.637 24.9919 49.1748)" fill="#F9FCFF"/>
<circle cx="26.1261" cy="41.1269" r="0.634614" transform="rotate(-120.637 26.1261 41.1269)" fill="#F9FCFF"/>
<circle cx="20.0189" cy="43.2702" r="0.634614" transform="rotate(-120.637 20.0189 43.2702)" fill="#F9FCFF"/>
<circle cx="22.6906" cy="32.8366" r="0.634614" transform="rotate(-120.637 22.6906 32.8366)" fill="#F9FCFF"/>
<circle cx="33.3255" cy="38.3383" r="0.634614" transform="rotate(-120.637 33.3255 38.3383)" fill="#F9FCFF"/>
<circle cx="30.6961" cy="41.3708" r="0.634614" transform="rotate(-120.637 30.6961 41.3708)" fill="#F9FCFF"/>
<circle cx="27.9072" cy="34.1716" r="0.634614" transform="rotate(-120.637 27.9072 34.1716)" fill="#F9FCFF"/>
<circle cx="23.6231" cy="21.9572" r="0.634614" transform="rotate(-120.637 23.6231 21.9572)" fill="#F9FCFF"/>
<circle cx="12.0556" cy="27.3339" r="0.634614" transform="rotate(-120.637 12.0556 27.3339)" fill="#F9FCFF"/>
<circle cx="16.6257" cy="27.5776" r="0.634614" transform="rotate(-120.637 16.6257 27.5776)" fill="#F9FCFF"/>
<circle cx="15.9366" cy="33.885" r="0.634614" transform="rotate(-120.637 15.9366 33.885)" fill="#F9FCFF"/>
<circle cx="27.9497" cy="26.7717" r="0.634614" transform="rotate(-120.637 27.9497 26.7717)" fill="#F9FCFF"/>
<circle cx="32.7208" cy="29.8459" r="0.634614" transform="rotate(-120.637 32.7208 29.8459)" fill="#F9FCFF"/>
<circle cx="36.6014" cy="36.3981" r="0.634614" transform="rotate(-120.637 36.6014 36.3981)" fill="#F9FCFF"/>
<circle cx="39.1882" cy="40.7668" r="0.634614" transform="rotate(-120.637 39.1882 40.7668)" fill="#F9FCFF"/>
<circle cx="22.9345" cy="28.267" r="0.634614" transform="rotate(-120.637 22.9345 28.267)" fill="#F9FCFF"/>
<circle cx="17.3144" cy="21.2688" r="0.634614" transform="rotate(-120.637 17.3144 21.2688)" fill="#F9FCFF"/>
<circle cx="21.6826" cy="18.6821" r="0.634614" transform="rotate(-120.637 21.6826 18.6821)" fill="#F9FCFF"/>
<circle cx="20.708" cy="36.9604" r="0.634614" transform="rotate(-120.637 20.708 36.9604)" fill="#F9FCFF"/>
<circle cx="29.3598" cy="46.5881" r="0.634614" transform="rotate(-120.637 29.3598 46.5881)" fill="#F9FCFF"/>
<path d="M26.9748 55.8136L26.9749 55.8137C28.7492 57.2723 31.2042 57.6186 33.5699 57.5752L33.57 57.5752C35.9631 57.5318 38.4224 57.096 40.2468 55.6319C41.9978 54.225 43.0044 52.2067 43.6636 49.9876C44.1825 48.2404 44.4801 46.3928 44.7622 44.6413C44.8391 44.1636 44.9149 43.693 44.9937 43.2335C44.9938 43.2335 44.9938 43.2335 44.9938 43.2335L45.2402 43.2757C45.555 41.438 45.932 39.6087 46.3092 37.7793C47.1072 33.908 47.9055 30.0357 48.1142 26.0797L26.9748 55.8136ZM26.9748 55.8136C25.0788 54.2563 24.1861 51.6235 24.0552 49.1656C23.9859 47.848 24.1041 46.5299 24.3049 45.2094C24.4592 44.2057 24.6589 43.204 24.8598 42.2021L24.8598 42.2021C25.1447 40.78 25.4213 39.3549 25.6979 37.9298C26.6267 33.1439 27.5556 28.3579 28.7998 23.6826L28.5582 23.6183L28.7998 23.6826C29.145 22.3846 29.5098 21.1062 30.1582 19.9775C30.9132 18.6719 31.9942 17.9261 33.3555 17.2883L33.3559 17.2881L35.2144 16.4134L35.2145 16.4134L35.2245 16.4086C35.504 16.2773 35.8372 16.1207 36.0943 15.8565L36.0945 15.8566L36.1018 15.8485C36.2732 15.6562 36.419 15.4423 36.5356 15.2121C36.6689 14.9738 36.7818 14.7243 36.8878 14.481C36.9114 14.4267 36.9346 14.3729 36.9577 14.3195C37.04 14.1288 37.1199 13.9439 37.2072 13.7632C37.4296 13.3033 37.6834 12.9093 38.0775 12.6303C38.9023 12.0464 40.1007 11.8612 41.1018 12.034L41.1021 12.034C43.0659 12.371 44.2952 13.8961 44.4781 15.8832C44.4981 16.1005 44.5026 16.3261 44.5064 16.563L44.507 16.6021C44.5105 16.8242 44.5142 17.056 44.5316 17.2854C44.5685 17.7722 44.6688 18.2776 44.9838 18.7296C45.1514 18.9702 45.3609 19.1621 45.5675 19.3315C45.6574 19.4051 45.7417 19.4708 45.8233 19.5344C45.9413 19.6263 46.0535 19.7137 46.1684 19.8141C47.7571 21.2068 47.9815 23.6347 47.8733 25.8934C47.8733 25.8936 47.8732 25.8937 47.8732 25.8939L47.8645 26.0665L26.9748 55.8136Z" fill="#517AA4" stroke="#517AA4" stroke-width="0.5"/>
<path d="M37.0946 15.8229C37.1083 15.8361 37.1233 15.8481 37.1394 15.8588C37.3096 15.9716 37.5858 15.971 37.784 16.0036L38.6212 16.1395L40.2946 16.4119L43.6414 16.9561C43.8338 16.9834 43.8231 16.8483 43.8309 16.7231C43.8694 16.0715 43.8643 15.399 43.6632 14.7606C43.1881 13.2527 41.3954 12.4096 39.739 12.5619C38.8966 12.6386 38.2344 13.1027 37.8 13.7201C37.5838 14.0335 37.4134 14.3712 37.293 14.7252C37.2315 14.9003 37.1796 15.0783 37.1342 15.2571C37.1018 15.392 36.9825 15.6342 37.0452 15.7613C37.058 15.7839 37.0747 15.8047 37.0946 15.8229Z" fill="#F2FFDD"/>
<circle cx="27.0031" cy="50.4037" r="0.53264" transform="rotate(-77.2323 27.0031 50.4037)" fill="#F9FCFF"/>
<circle cx="30.9233" cy="52.3851" r="0.53264" transform="rotate(-77.2323 30.9233 52.3851)" fill="#F9FCFF"/>
<circle cx="29.787" cy="47.7582" r="0.53264" transform="rotate(-77.2323 29.787 47.7582)" fill="#F9FCFF"/>
<circle cx="34.5107" cy="51.0123" r="0.53264" transform="rotate(-77.2323 34.5107 51.0123)" fill="#F9FCFF"/>
<circle cx="39.1373" cy="49.8768" r="0.53264" transform="rotate(-77.2323 39.1373 49.8768)" fill="#F9FCFF"/>
<circle cx="35.688" cy="45.8182" r="0.53264" transform="rotate(-77.2323 35.688 45.8182)" fill="#F9FCFF"/>
<circle cx="27.8471" cy="41.8573" r="0.53264" transform="rotate(-77.2323 27.8471 41.8573)" fill="#F9FCFF"/>
<circle cx="33.18" cy="37.6036" r="0.53264" transform="rotate(-77.2323 33.18 37.6036)" fill="#F9FCFF"/>
<circle cx="28.221" cy="35.388" r="0.53264" transform="rotate(-77.2323 28.221 35.388)" fill="#F9FCFF"/>
<circle cx="35.8672" cy="30.5663" r="0.53264" transform="rotate(-77.2323 35.8672 30.5663)" fill="#F9FCFF"/>
<circle cx="39.1786" cy="40.0555" r="0.53264" transform="rotate(-77.2323 39.1786 40.0555)" fill="#F9FCFF"/>
<circle cx="35.8263" cy="40.3888" r="0.53264" transform="rotate(-77.2323 35.8263 40.3888)" fill="#F9FCFF"/>
<circle cx="38.2777" cy="34.39" r="0.53264" transform="rotate(-77.2323 38.2777 34.39)" fill="#F9FCFF"/>
<circle cx="42.7101" cy="24.472" r="0.53264" transform="rotate(-77.2323 42.7101 24.472)" fill="#F9FCFF"/>
<circle cx="32.5558" cy="21.0782" r="0.53264" transform="rotate(-77.2323 32.5558 21.0782)" fill="#F9FCFF"/>
<circle cx="35.2016" cy="23.8619" r="0.53264" transform="rotate(-77.2323 35.2016 23.8619)" fill="#F9FCFF"/>
<circle cx="31.1432" cy="27.3121" r="0.53264" transform="rotate(-77.2323 31.1432 27.3121)" fill="#F9FCFF"/>
<circle cx="42.5718" cy="29.9024" r="0.53264" transform="rotate(-77.2323 42.5718 29.9024)" fill="#F9FCFF"/>
<circle cx="43.7077" cy="34.5284" r="0.53264" transform="rotate(-77.2323 43.7077 34.5284)" fill="#F9FCFF"/>
<circle cx="42.2951" cy="40.7623" r="0.53264" transform="rotate(-77.2323 42.2951 40.7623)" fill="#F9FCFF"/>
<circle cx="41.3535" cy="44.9178" r="0.53264" transform="rotate(-77.2323 41.3535 44.9178)" fill="#F9FCFF"/>
<circle cx="38.6513" cy="27.9208" r="0.53264" transform="rotate(-77.2323 38.6513 27.9208)" fill="#F9FCFF"/>
<circle cx="39.26" cy="20.412" r="0.53264" transform="rotate(-77.2323 39.26 20.412)" fill="#F9FCFF"/>
<circle cx="43.4159" cy="21.3539" r="0.53264" transform="rotate(-77.2323 43.4159 21.3539)" fill="#F9FCFF"/>
<circle cx="32.2795" cy="31.9393" r="0.53264" transform="rotate(-77.2323 32.2795 31.9393)" fill="#F9FCFF"/>
<circle cx="32.0032" cy="42.7992" r="0.53264" transform="rotate(-77.2323 32.0032 42.7992)" fill="#F9FCFF"/>
</svg>
