<svg xmlns="http://www.w3.org/2000/svg" width="24" height="24" viewBox="0 0 24 24"><defs><style>.a{opacity:0.7;}.b,.c{fill:none;}.c{stroke:#000;stroke-linecap:round;stroke-linejoin:round;stroke-width:2px;}</style></defs><g class="a" transform="translate(-317.9 -552.9)"><path class="b" d="M317.9,552.9h24v24h-24Z"/><g transform="translate(317.1 552.9)"><path class="c" d="M6.3,6H18.9a1.737,1.737,0,0,1,1.8,1.667V19.333A1.737,1.737,0,0,1,18.9,21H6.3a1.737,1.737,0,0,1-1.8-1.667V7.667A1.737,1.737,0,0,1,6.3,6Z" transform="translate(0 0)"/><path class="c" d="M24,3V9" transform="translate(-7.8)"/><path class="c" d="M12,3V9" transform="translate(-3)"/><path class="c" d="M4.5,15H20.7" transform="translate(0 -4.8)"/></g></g></svg>